<ttFont>
          <CharString index="0">
            rmoveto
            40 -16 -71 16 -82 hhcurveto
            -110 -114 -13 -18 -80 -27 callsubr
            75 hlineto
            26 26 -1 -4 22 hvcurveto
            5 -25 2 -27 -30 vvcurveto
            -281 vlineto
            -99 -1 -120 -10 -80 vhcurveto
            -23 -18 -121 -64 -97 hhcurveto
            -108 -7 91 96 hvcurveto
            218 -1 217 218 vvcurveto
            41 -10 -64 15 -99 hhcurveto
            -111 -119 -15 -16 -74 -27 callsubr
            77 hlineto
            28 26 -1 -4 24 hvcurveto
            3 -27 2 -27 -32 vvcurveto
            -493 vlineto
            -205 107 -116 200 160 101 61 74 99 vhcurveto
            -108 2 51 -16 122 hhcurveto
            112 104 14 23 97 hvcurveto
            98 -157 vlineto
            -7 31 -6 47 69 vvcurveto
            return
          </CharString>
          <CharString index="1">
            hintmask 11100000
            -107 callgsubr
            return
          </CharString>
          <CharString index="2">
            288 13 callsubr
            -39 callgsubr
            -29 -31 0 -34 hhcurveto
            -86 -159 hlineto
            11 137 120 2 118 hhcurveto
            95 102 -2 -11 116 hvcurveto
            159 -80 vlineto
            -31 -30 -72 callgsubr
            334 vlineto
            75 -2 83 4 70 -12 99 -68 25 -166 95 -227 rrcurveto
            -105 44 83 -45 129 hhcurveto
            66 74 8 5 56 hvcurveto
            8 173 -59 -1 -77 0 -26 -1 rlinecurve
            -63 261 -72 163 -192 73 rrcurveto
            190 64 121 118 177 vvcurveto
            332 -270 80 -372 -193 -257 -6 -15 -177 vhcurveto
            -138 123 vlineto
            29 30 1 2 callsubr
            -21 3 -33 -45 -301 1 -302 -302 vvcurveto
            415 1008 rmoveto
            220 87 -67 -194 -198 -105 -73 -234 -22 -21 0 1 -20 hvcurveto
            531 vlineto
            return
          </CharString>
          <CharString index="3">
            1201 968 -107 callsubr
            return
          </CharString>
          <CharString index="4">
            159 -106 vlineto
            -31 -27 -72 callgsubr
            897 vlineto
            46 4 31 -97 callsubr
            9 -32 2 -40 -66 vvcurveto
            -865 vlineto
            -47 -21 callsubr
            -25 vhcurveto
            -4 -26 -27 -12 callsubr
            return
          </CharString>
          <CharString index="5">
            -100 callsubr
            hintmask 00100000
            -103 callgsubr
          </CharString>
          <CharString index="6">
            100 -55 callsubr
            -103 callsubr
            return
          </CharString>
          <CharString index="7">
            -101 callgsubr
            rrcurveto
            return
          </CharString>
          <CharString index="8">
            1510 702 rmoveto
            462 -265 272 -432 -52 callgsubr
            -42 callsubr
            -40 callgsubr
            vhcurveto
            -1054 -3 rmoveto
            -52 callsubr
            228 127 -194 -386 -391 -129 -186 -226 -49 callgsubr
            return
          </CharString>
          <CharString index="9">
            793 -1 rmoveto
            330 -237 201 -322 -299 -262 -180 -351 -332 238 -195 323 293 266 170 357 vhcurveto
            return
          </CharString>
          <CharString index="10">
            6 27 vhcurveto
            5 -37 callsubr
            107 -29 callgsubr
            -95 -125 3 -151 hhcurveto
            -120 -113 -80 callgsubr
            return
          </CharString>
          <CharString index="11">
            -100 callsubr
            hintmask 00010000
            -103 callgsubr
          </CharString>
          <CharString index="12">
            27 21 41 71 61 hhcurveto
            23 26 -9 -38 73 hvcurveto
            -32 62 60 -27 68 hhcurveto
            96 76 75 136 73 hvcurveto
            -37 20 -39 13 -38 10 rrcurveto
            -46 -23 -43 -53 -53 hhcurveto
            return
          </CharString>
          <CharString index="13">
            -5 callsubr
            hintmask 10011010
            -93 callgsubr
            hintmask 01011010
            -31 callsubr
            hintmask 00111010
            -77 callsubr
            hintmask 10011010
            -104 callgsubr
            return
          </CharString>
          <CharString index="14">
            -98 callsubr
            endchar
          </CharString>
          <CharString index="15">
            rmoveto
            -14 40 45 -6 46 hhcurveto
            46 47 8 16 42 hvcurveto
            73 99 102 136 46 84 rrcurveto
            17 -17 -33 2 -44 hhcurveto
            -35 -37 -2 -4 -35 hvcurveto
            -156 -191 -152 191 rlineto
            4 -36 -38 2 -39 hhcurveto
            -43 -35 -2 -17 -15 hvcurveto
            9 -25 18 -23 18 -24 return
          </CharString>
          <CharString index="16">
            hstemhm
            -27 callgsubr
            hintmask 11011000
            -105 callgsubr
            return
          </CharString>
          <CharString index="17">
            -53 callgsubr
            11 callsubr
            hintmask 10011000
            -66 callgsubr
            hintmask 11001000
            -95 callgsubr
            hintmask 10101000
            -64 callsubr
            return
          </CharString>
          <CharString index="18">
            -89 callgsubr
            vhcurveto
            hintmask 11001100
            -92 callgsubr
          </CharString>
          <CharString index="19">
            -91 callgsubr
            rrcurveto
            hintmask 11000000
            -43 callgsubr
          </CharString>
          <CharString index="20">
            426 1089 rmoveto
            119 78 69 109 56 110 -19 -46 52 vhcurveto
            45 -40 9 -58 7 -69 174 1 rcurveline
            18 89 25 93 3 96 rrcurveto
            56 -112 -128 56 -178 hhcurveto
            -375 -212 -156 -225 -187 144 -112 253 -104 hvcurveto
            208 -86 139 -67 -165 vvcurveto
            -121 -88 -96 -126 -64 -100 11 39 -46 vhcurveto
            -36 39 2 64 -19 101 -224 61 rcurveline
            -23 -84 -39 -109 -8 -77 rrcurveto
            -124 69 279 -68 204 hhcurveto
            316 227 158 264 245 -269 110 -261 105 hvcurveto
            -131 52 -88 61 124 vvcurveto
            return
          </CharString>
          <CharString index="21">
            92 -69 63 -96 -94 -71 -63 -92 -97 65 -60 100 return
          </CharString>
          <CharString index="22">
            -9 callsubr
            hvcurveto
            -83 callgsubr
          </CharString>
          <CharString index="23">
            -83 callsubr
            hintmask 00010000
            -95 callsubr
            return
          </CharString>
          <CharString index="24">
            rmoveto
            32 -62 -59 27 -74 hhcurveto
            -89 -90 -54 -154 -70 hvcurveto
            35 -20 35 -13 36 -10 rrcurveto
            return
          </CharString>
          <CharString index="25">
            77 85 -94 callgsubr
            -187 35 rlineto
            return
          </CharString>
          <CharString index="26">
            rmoveto
            -51 134 -50 137 -16 47 rrcurveto
            6 16 22 2 25 hhcurveto
            46 hlineto
            -5 47 -7 40 -7 34 rrcurveto
            19 -123 -72 1 -91 hhcurveto
            -116 -97 -6 -14 -68 hvcurveto
            9 3 callgsubr
            59 hlineto
            28 26 -3 -5 24 hvcurveto
            19 -34 16 -35 16 -37 341 -792 rcurveline
            -184 -65 -36 -77 -118 hhcurveto
            -50 -71 11 26 -70 hvcurveto
            -39 -154 rlineto
            -18 40 88 -15 87 hhcurveto
            296 71 135 331 136 hvcurveto
            347 843 rlineto
            6 25 24 2 30 hhcurveto
            return
          </CharString>
          <CharString index="27">
            -87 callgsubr
            30 17 7 14 4 hvcurveto
            return
          </CharString>
          <CharString index="28">
            71 100 -7 116 hhcurveto
            110 112 3 4 115 hvcurveto
            39 375 -157 21 rlineto
            -168 -46 -53 -82 -146 hhcurveto
            -295 1010 hlineto
            45 3 33 7 26 vhcurveto
            5 -37 callsubr
            108 -29 callgsubr
            -96 -126 3 -151 hhcurveto
            -121 -112 -26 callgsubr
            -44 vvcurveto
            -866 vlineto
            -49 -3 -46 -7 -45 vhcurveto
            -4 -26 -27 -12 callsubr
            return
          </CharString>
          <CharString index="29">
            rmoveto
            61 55 3 53 hhcurveto
            324 114 -175 -387 -418 -170 -139 -398 -13 -13 0 2 -13 hvcurveto
            -5 -148 rmoveto
            553 401 111 586 538 -293 186 -455 -290 -239 -10 -19 -203 hvcurveto
            -138 100 vlineto
            36 34 0 -5 31 hvcurveto
            7 -35 5 -41 -53 vvcurveto
            -853 vlineto
            -58 -5 -44 -29 -17 vhcurveto
            -6 -29 -31 -2 -32 hhcurveto
            -76 -1 rlineto
            return
          </CharString>
          <CharString index="30">
            153 155 -8 205 hhcurveto
            -41 callgsubr
            hvcurveto
            4 57 3 73 3 66 rrcurveto
            return
          </CharString>
          <CharString index="31">
            -70 -66 1 1 -58 hvcurveto
            -10 -91 -10 -53 -10 -29 rrcurveto
            -15 -23 -50 -9 -62 hhcurveto
            return
          </CharString>
          <CharString index="32">
            hlineto
            51 21 -26 -107 28 -65 callgsubr
            return
          </CharString>
          <CharString index="33">
            -117 -104 -72 -116 -100 57 -66 88 -19 hvcurveto
            -37 -105 -57 -89 -77 -74 94 -93 rcurveline
            247 154 128 146 194 vvcurveto
            149 -78 91 -144 vhcurveto
            return
          </CharString>
          <CharString index="34">
            rmoveto
            29 -5 -10 11 -59 hhcurveto
            -74 -94 -24 -24 -89 hvcurveto
            6 -64 64 6 rlineto
            7 6 1 6 hhcurveto
            18 15 -3 -6 14 hvcurveto
            -607 vlineto
            -31 -3 -20 -3 -16 callsubr
            -82 -96 hlineto
            -24 callgsubr
            78 hvcurveto
            96 -66 vlineto
            -18 -17 0 3 -16 hvcurveto
            -3 13 -2 15 22 vvcurveto
            return
          </CharString>
          <CharString index="35">
            -43 -89 -47 -99 -80 -157 rrcurveto
            return
          </CharString>
          <CharString index="36">
            -83 callsubr
            hintmask 00100000
            -95 callsubr
            hintmask 00010000
            -24 callsubr
          </CharString>
          <CharString index="37">
            432 505 -89 callgsubr
            -48 callgsubr
            vhcurveto
            -98 callsubr
            return
          </CharString>
          <CharString index="38">
            99 0 -49 callsubr
            658 138 467 158 return
          </CharString>
          <CharString index="39">
            -86 callgsubr
            hintmask 00010000
            -72 callsubr
            endchar
          </CharString>
          <CharString index="40">
            -261 -274 4 -254 hhcurveto
            -38 -1 -36 -44 vvcurveto
            -51 1 -61 4 -87 vhcurveto
            43 1 43 3 43 3 rrcurveto
            4 hlineto
            7 66 12 52 16 40 rrcurveto
            15 22 40 3 34 hhcurveto
            332 hlineto
            -620 -708 rlineto
            -80 vlineto
            -62 19 -17 38 -7 vhcurveto
            -2 34 46 -2 58 hhcurveto
            return
          </CharString>
          <CharString index="41">
            -61 callsubr
            vhcurveto
            return
          </CharString>
          <CharString index="42">
            hvcurveto
            -6 28 -4 34 47 vvcurveto
            return
          </CharString>
          <CharString index="43">
            146 hlineto
            23 297 rlineto
            13 -34 -44 13 -70 hhcurveto
            -158 -100 -84 -132 -95 hvcurveto
            return
          </CharString>
          <CharString index="44">
            -103 -22 -72 -95 -34 -44 10 3 -9 vhcurveto
            -3 38 -18 110 -8 93 -190 3 rcurveline
            -12 -159 -9 -112 -4 -55 1 -15 rlinecurve
            -43 79 159 -21 104 hhcurveto
            262 152 171 322 hvcurveto
            271 0 270 271 vvcurveto
            endchar
          </CharString>
          <CharString index="45">
            304 -287 -21 100 208 hstemhm
            return
          </CharString>
          <CharString index="46">
            rmoveto
            -86 callsubr
            return
          </CharString>
          <CharString index="47">
            95 hmoveto
            124 -93 82 -126 -127 -92 -82 -124 -125 92 -82 127 125 94 81 126 vhcurveto
            endchar
          </CharString>
          <CharString index="48">
            253 132 152 299 hvcurveto
            310 1 309 310 vvcurveto
            return
          </CharString>
          <CharString index="49">
            -273 -87 -141 -140 -57 -70 2 7 -62 vhcurveto
            -5 119 -2 126 117 vvcurveto
            114 2 108 8 104 vhcurveto
            57 79 76 29 74 hhcurveto
            123 61 -123 -246 hvcurveto
            endchar
          </CharString>
          <CharString index="50">
            -91 callgsubr
            -43 callgsubr
          </CharString>
          <CharString index="51">
            1376 1041 rmoveto
            77 9 192 87 vvcurveto
            14 -34 -95 2 -128 -74 -214 -7 -123 -96 -244 7 -78 hhcurveto
            -133 -100 -1 -15 -35 hvcurveto
            -86 10 -194 -76 vvcurveto
            return
          </CharString>
          <CharString index="52">
            110 -2 -11 125 hvcurveto
            return
          </CharString>
          <CharString index="53">
            -96 callgsubr
            hintmask 00011000
            -35 callgsubr
            hintmask 00100000
            -75 callgsubr
          </CharString>
          <CharString index="54">
            0 -45 callsubr
            return
          </CharString>
          <CharString index="55">
            392 131 191 226 return
          </CharString>
          <CharString index="56">
            -134 0 -15 -118 -18 vhcurveto
            -5 -109 rlineto
            18 120 94 3 87 hhcurveto
            71 65 -6 -15 123 hvcurveto
            -10 108 rlineto
            -109 20 -7 6 108 return
          </CharString>
          <CharString index="57">
            8 -21 420 127 879 -20 return
          </CharString>
          <CharString index="58">
            146 -146 341 -328 -21 return
          </CharString>
          <CharString index="59">
            111 120 -1 -4 92 hvcurveto
            45 -5 38 52 vvcurveto
            194 vlineto
            -39 -2 -40 -1 -39 -3 -22 -78 -17 -53 -21 -37 rrcurveto
            -14 -23 -31 -3 -33 hhcurveto
            return
          </CharString>
          <CharString index="60">
            32 33 1 2 34 hvcurveto
            248 16 217 184 340 vvcurveto
            290 -155 214 -281 -111 -105 -35 -75 -96 vhcurveto
            459 vlineto
            return
          </CharString>
          <CharString index="61">
            -120 vlineto
            41 22 -8 -17 -20 -43 -38 -52 -45 hvcurveto
            -215 -186 rlineto
            return
          </CharString>
          <CharString index="62">
            146 -34 callgsubr
            return
          </CharString>
          <CharString index="63">
            169 hlineto
            1 77 10 76 16 66 rrcurveto
            314 hlineto
            -335 1 -333 -335 vvcurveto
            -39 callgsubr
            -30 -33 0 -36 hhcurveto
            return
          </CharString>
          <CharString index="64">
            114 342 712 342 return
          </CharString>
          <CharString index="65">
            -455 265 -277 434 return
          </CharString>
          <CharString index="66">
            -30 155 1157 154 return
          </CharString>
          <CharString index="67">
            -23 139 777 142 return
          </CharString>
          <CharString index="68">
            15 -72 -73 6 -85 hhcurveto
            -90 -85 -6 -15 -81 hvcurveto
            -17 3 callgsubr
            54 hlineto
            27 20 -2 -6 18 hvcurveto
            -6 -23 -8 -24 -7 -25 return
          </CharString>
          <CharString index="69">
            327 465 328 return
          </CharString>
          <CharString index="70">
            26 27 0 31 hhcurveto
            return
          </CharString>
          <CharString index="71">
            102 -55 callsubr
            159 -92 vlineto
            -35 -33 0 4 -30 hvcurveto
            -8 28 -3 34 47 vvcurveto
            1001 vlineto
            return
          </CharString>
          <CharString index="72">
            66 -10 43 -103 -155 -130 -12 -24 -97 vhcurveto
            -100 92 vlineto
            32 28 -3 -4 27 hvcurveto
            2 -34 1 -36 -36 return
          </CharString>
          <CharString index="73">
            -33 -36 25 20 -40 hvcurveto
            return
          </CharString>
          <CharString index="74">
            203 -666 vlineto
            -72 -28 -23 -86 -3 vhcurveto
            -53 -2 -3 -109 rlineto
            3 110 101 2 97 hhcurveto
            return
          </CharString>
          <CharString index="75">
            61 62 1 61 hhcurveto
            -58 callgsubr
            -308 hlineto
            return
          </CharString>
          <CharString index="76">
            6 107 105 1 124 hhcurveto
            return
          </CharString>
          <CharString index="77">
            97 309 329 312 return
          </CharString>
          <CharString index="78">
            71 81 -1 -4 172 hvcurveto
            -28 109 rlineto
            -117 9 -23 19 122 vvcurveto
            616 return
          </CharString>
          <CharString index="79">
            49 -23 146 759 142 return
          </CharString>
          <CharString index="80">
            hvcurveto
            6 -111 rlineto
            return
          </CharString>
          <CharString index="81">
            -164 -141 -66 -106 -9 vhcurveto
            132 -94 rlineto
            110 24 77 67 82 hhcurveto
            return
          </CharString>
          <CharString index="82">
            rmoveto
            17 -23 -37 9 -50 hhcurveto
            -210 hlineto
            -170 -345 rlineto
            61 62 0 return
          </CharString>
          <CharString index="83">
            -34 callsubr
            endchar
          </CharString>
          <CharString index="84">
            185 124 113 160 174 vvcurveto
            113 -42 74 -137 return
          </CharString>
          <CharString index="85">
            867 -21 645 -20 hstem
            return
          </CharString>
          <CharString index="86">
            -4 -35 -7 return
          </CharString>
          <CharString index="87">
            hstemhm
            -43 callsubr
            return
          </CharString>
          <CharString index="88">
            hstemhm
            343 370 -340 311 return
          </CharString>
          <CharString index="89">
            146 -28 callgsubr
            319 return
          </CharString>
          <CharString index="90">
            -124 -43 -89 -68 -75 27 -37 23 -18 25 -15 rrcurveto
            endchar
          </CharString>
          <CharString index="91">
            -14 vhcurveto
            -3 -10 -12 0 -12 hhcurveto
            return
          </CharString>
          <CharString index="92">
            216 312 362 311 return
          </CharString>
          <CharString index="93">
            -717 -18 callgsubr
            return
          </CharString>
          <CharString index="94">
            -64 -73 -91 -91 61 -72 return
          </CharString>
          <CharString index="95">
            0 -31 hhcurveto
            return
          </CharString>
          <CharString index="96">
            0 133 -117 -21 883 130 4 -20 return
          </CharString>
          <CharString index="97">
            vhcurveto
            -5 -25 -28 -12 callsubr
            return
          </CharString>
          <CharString index="98">
            100 65 61 96 return
          </CharString>
          <CharString index="99">
            293 hstemhm
            188 371 -340 312 return
          </CharString>
          <CharString index="100">
            51 -66 9 vhcurveto
            24 124 43 89 68 75 return
          </CharString>
          <CharString index="101">
            3 172 170 4 173 hhcurveto
            endchar
          </CharString>
          <CharString index="102">
            hstemhm
            284 319 return
          </CharString>
          <CharString index="103">
            195 endchar
          </CharString>
          <CharString index="104">
            -46 rlinecurve
            -56 60 114 -42 123 hhcurveto
            return
          </CharString>
          <CharString index="105">
            -74 hlineto
            -30 -2 -23 -5 -16 vhcurveto
            -3 -16 return
          </CharString>
          <CharString index="106">
            11 100 174 2 249 hhcurveto
            endchar
          </CharString>
          <CharString index="107">
            289 277 311 return
          </CharString>
          <CharString index="108">
            124 2 121 hhcurveto
            return
          </CharString>
          <CharString index="109">
            -5 27 hvcurveto
            7 return
          </CharString>
          <CharString index="110">
            153 hstemhm
            return
          </CharString>
          <CharString index="111">
            -451 -21 449 146 765 return
          </CharString>
          <CharString index="112">
            -20 hstem
            377 178 vstem
            377 return
          </CharString>
          <CharString index="113">
            140 rlineto
            return
          </CharString>
          <CharString index="114">
            353 0 146 -132 -21 return
          </CharString>
          <CharString index="115">
            128 4 -21 892 147 return
          </CharString>
          <CharString index="116">
            79 -52 -116 -96 -57 -70 -100 return
          </CharString>
          <CharString index="117">
            496 153 hstem
            return
          </CharString>
          <CharString index="118">
            hstemhm
            236 312 return
          </CharString>
          <CharString index="119">
            -21 336 -20 return
          </CharString>
          <CharString index="120">
            257 rmoveto
            return
          </CharString>
          <CharString index="121">
            200 endchar
          </CharString>
        <CharString name=".notdef">
          -779 endchar
        </CharString>
        <CharString name="A">
          -50 callsubr
          hstem
          -107 callgsubr
          endchar
        </CharString>
        <CharString name="AE">
          844 -8 154 -154 351 -335 -21 420 127 116 138 469 156 hstemhm
          hintmask 00111100
          866 1096 rmoveto
          141 -562 rlineto
          -388 hlineto
          701 -534 rmoveto
          169 155 -8 170 hhcurveto
          169 109 8 18 113 hvcurveto
          -25 102 -30 118 -28 103 rrcurveto
          hintmask 10011100
          -67 -59 2 -68 hhcurveto
          13 -88 8 -36 -49 vvcurveto
          -24 -28 -84 0 -86 hhcurveto
          hintmask 00111100
          -303 hlineto
          -143 504 rlineto
          242 hlineto
          56 29 -35 -98 56 -65 callgsubr
          -34 125 -37 136 -40 132 rrcurveto
          -99 hlineto
          -73 -18 -16 -28 -11 vhcurveto
          -15 -24 -26 -7 -35 hhcurveto
          -189 hlineto
          -133 469 rlineto
          1 114 73 1 56 hhcurveto
          108 81 -6 -18 73 hvcurveto
          34 -48 23 -49 22 -48 177 17 rcurveline
          -20 42 -31 70 -31 65 -63 129 rcurveline
          -964 hlineto
          -221 -476 -240 -485 -85 -195 -21 -49 -20 -42 -28 -24 -26 -11 -27 -3 -33 -2 -37 -2 rcurveline
          -44 -137 rlineto
          10 79 83 3 107 hhcurveto
          hintmask 10011100
          119 101 -2 -11 80 hvcurveto
          28 135 rlineto
          -32 3 -74 -2 37 vvcurveto
          23 11 32 17 43 vhcurveto
          60 149 rlineto
          460 hlineto
          20 -79 25 -90 12 -68 rrcurveto
          hintmask 01011100
          1 -10 1 -8 -6 vvcurveto
          -17 -39 -4 -26 -1 vhcurveto
          -42 -4 rlineto
          -133 vlineto
          9 115 133 4 81 hhcurveto
          endchar
        </CharString>
        <CharString name="Aacute">
          -50 callsubr
          209 345 hstemhm
          -106 callsubr
          -24 458 -68 callsubr
        </CharString>
        <CharString name="Acircumflex">
          209 410 65 -4 callsubr
        </CharString>
        <CharString name="Adieresis">
          268 410 65 14 callsubr
        </CharString>
        <CharString name="Agrave">
          208 410 65 4 callgsubr
        </CharString>
        <CharString name="Aring">
          -50 callsubr
          192 86 243 84 hstemhm
          592 95 248 95 -106 callsubr
          161 648 -32 callgsubr
          vhcurveto
          hintmask 00011110
          -46 callgsubr
        </CharString>
        <CharString name="Atilde">
          -50 callsubr
          268 -13 callgsubr
          -106 callsubr
          88 717 -70 callgsubr
        </CharString>
        <CharString name="B">
          174 -5 148 501 144 482 151 hstemhm
          287 322 419 321 -291 291 -291 326 hintmask 11111000
          287 267 rmoveto
          -56 -4 -46 -30 -15 vhcurveto
          -4 -27 -29 0 -32 hhcurveto
          -80 -148 hlineto
          169 178 -3 194 hhcurveto
          hintmask 11110010
          382 376 18 375 185 -103 112 -207 42 hvcurveto
          170 45 105 128 139 vvcurveto
          255 -188 127 -373 -277 -235 -11 -21 -208 vhcurveto
          -139 vlineto
          1 38 41 1 38 hhcurveto
          32 30 -1 -1 28 hvcurveto
          8 -32 4 -42 -52 vvcurveto
          741 -91 rmoveto
          -170 -125 -77 -201 -32 -31 2 1 -30 vhcurveto
          476 vlineto
          1 13 29 4 93 hhcurveto
          hintmask 11111000
          201 83 -78 -159 hvcurveto
          -419 -389 rmoveto
          1 17 21 1 21 hhcurveto
          hintmask 11110100
          270 120 -54 -211 -151 -82 -87 -182 -59 -61 1 2 -65 hvcurveto
          endchar
        </CharString>
        <CharString name="C">
          136 -36 163 913 396 -147 147 hstem
          115 343 vstem
          1351 263 rmoveto
          -81 -166 -148 -55 -174 hhcurveto
          -257 -148 196 392 350 129 224 274 164 78 -145 -135 32 hvcurveto
          190 hlineto
          23 310 rlineto
          65 -108 -181 52 -194 hhcurveto
          -475 -275 -272 -491 -464 292 -245 435 207 174 46 86 147 hvcurveto
          -19 167 rlineto
          endchar
        </CharString>
        <CharString name="CR">
          -454 endchar
        </CharString>
        <CharString name="Ccedilla">
          136 389 0 67 203 endchar
        </CharString>
        <CharString name="D">
          7 callsubr
          1272 -8 callgsubr
          hintmask 10111000
          599 1262 -78 callsubr
          hintmask 01111000
          -146 vlineto
          -6 callsubr
        </CharString>
        <CharString name="E">
          -69 callsubr
          -5 callsubr
          hintmask 10011100
          -93 callgsubr
          hintmask 01011100
          -31 callsubr
          hintmask 00111100
          -77 callsubr
          hintmask 10011100
          -104 callgsubr
          endchar
        </CharString>
        <CharString name="Eacute">
          -69 callsubr
          189 345 -94 callsubr
          -21 189 -86 callgsubr
          hintmask 00000100
          -72 callsubr
          endchar
        </CharString>
        <CharString name="Ecircumflex">
          99 102 410 69 -4 callsubr
        </CharString>
        <CharString name="Edieresis">
          -69 callsubr
          97 312 -5 callsubr
          -184 -23 callgsubr
          hintmask 1001101000000000
          -93 callgsubr
          hintmask 0101101000000000
          -31 callsubr
          hintmask 0011101000000000
          -77 callsubr
          hintmask 1001101000000000
          -104 callgsubr
          -42 254 -66 callsubr
          hintmask 0000010110000000
          -85 callsubr
        </CharString>
        <CharString name="Egrave">
          99 101 410 69 4 callgsubr
        </CharString>
        <CharString name="Eth">
          7 callsubr
          629 166 -1 -20 498 -8 callgsubr
          hintmask 00100000
          733 622 rmoveto
          92 28 51 35 hvcurveto
          hintmask 00010000
          80 vlineto
          hintmask 00100000
          -640 -14 -1 -22 hhcurveto
          -28 -92 -3 -74 hvcurveto
          -3 1 -3 -82 vvcurveto
          201 hlineto
          340 640 -78 callsubr
          hintmask 10001110
          -146 vlineto
          hintmask 01001110
          -6 callsubr
        </CharString>
        <CharString name="Euro">
          193 -36 165 354 141 118 142 170 387 -152 152 hstem
          1394 276 rmoveto
          -91 -125 -124 -56 -166 hhcurveto
          -185 -112 128 226 -45 hvcurveto
          347 hlineto
          52 56 17 124 hvcurveto
          -474 hlineto
          -4 34 0 41 43 vvcurveto
          320 hlineto
          75 98 1 55 15 hvcurveto
          24 86 rlineto
          -521 hlineto
          239 30 95 166 194 hhcurveto
          133 71 -131 -109 48 hvcurveto
          223 10 rlineto
          77 6 78 4 95 vhcurveto
          84 -98 -189 48 -186 hhcurveto
          -365 -237 -205 -352 -64 hvcurveto
          -71 hlineto
          -50 -46 -2 -57 -12 hvcurveto
          -18 -83 rlineto
          180 hlineto
          -1 -20 -1 -20 -20 vvcurveto
          -20 0 -18 1 -20 vhcurveto
          -65 hlineto
          -76 -28 0 -57 -13 hvcurveto
          -20 -84 rlineto
          220 hlineto
          -346 67 250 -173 338 hhcurveto
          213 173 61 133 124 hvcurveto
          -61 118 rlineto
          endchar
        </CharString>
        <CharString name="F">
          19 0 146 -138 -21 660 144 300 322 -158 158 hstemhm
          274 319 hintmask 10101100
          593 1255 rmoveto
          3 152 74 1 58 hhcurveto
          91 53 -2 -18 67 hvcurveto
          22 -66 14 -56 3 -32 183 12 rcurveline
          -4 45 -10 71 -10 67 -21 133 rcurveline
          -629 -212 5 -31 -356 hvcurveto
          -134 114 vlineto
          30 26 -12 callgsubr
          -23 3 -35 -44 -296 1 -297 -296 vvcurveto
          -39 callgsubr
          -25 -27 0 -30 hhcurveto
          hintmask 01110100
          -103 hlineto
          hintmask 10110100
          -159 vlineto
          hintmask 01110100
          7 132 117 6 112 hhcurveto
          hintmask 10101100
          104 109 -6 -7 127 hvcurveto
          159 -97 vlineto
          -29 -26 0 4 -24 -65 callsubr
          388 233 vlineto
          51 21 -24 -106 29 hvcurveto
          43 23 -1 17 8 7 1 7 hhcurveto
          4 125 2 136 132 vvcurveto
          -99 hlineto
          -97 -28 -10 -22 -90 hhcurveto
          -218 464 hlineto
          endchar
        </CharString>
        <CharString name="G">
          185 -30 165 379 143 634 145 hstem
          115 342 643 312 vstem
          929 1436 rmoveto
          -495 -319 -244 -519 -470 313 -233 440 220 184 56 92 140 hvcurveto
          334 vlineto
          29 0 42 2 40 vhcurveto
          2 93 rlineto
          -18 -16 1 -16 hhcurveto
          -229 -146 -7 -13 -121 hvcurveto
          -123 112 vlineto
          39 36 -2 -6 32 hvcurveto
          8 -26 3 -40 -46 vvcurveto
          -221 vlineto
          -26 -63 -76 -12 -91 hhcurveto
          -272 -141 231 328 381 143 216 289 167 77 -100 -185 44 hvcurveto
          62 61 -1 62 hhcurveto
          25 316 rlineto
          58 -80 -192 57 -186 hhcurveto
          endchar
        </CharString>
        <CharString name="H">
          423 0 146 -138 -21 664 157 457 154 hstemhm
          265 319 563 319 hintmask 10111100
          1148 13 callsubr
          -48 -3 -35 -8 -24 vhcurveto
          -4 -23 -27 0 -29 hhcurveto
          hintmask 01111100
          -96 hlineto
          hintmask 10111100
          -159 vlineto
          10 121 107 3 102 hhcurveto
          hintmask 01111100
          65 hlineto
          hintmask 10111100
          93 99 -3 -10 114 hvcurveto
          159 -104 vlineto
          -30 -27 12 callgsubr
          -6 28 -4 35 46 vvcurveto
          -1 894 rlineto
          14 callgsubr
          6 27 vhcurveto
          5 25 27 0 30 hhcurveto
          106 -29 callgsubr
          -93 -122 3 -146 hhcurveto
          -118 -110 -6 -13 -115 hvcurveto
          -135 98 vlineto
          28 27 0 -5 23 hvcurveto
          7 -26 3 -34 1 -47 1 -345 rcurveline
          -563 hlineto
          -1 353 rlineto
          41 3 32 6 26 vhcurveto
          5 25 26 0 28 hhcurveto
          99 -29 callgsubr
          -92 -123 3 -145 hhcurveto
          -119 -110 -6 -13 -114 hvcurveto
          -135 103 vlineto
          31 27 0 -5 24 hvcurveto
          7 -26 4 -34 -47 vvcurveto
          2 -896 rlineto
          -47 -21 callsubr
          -25 vhcurveto
          -4 -25 -27 0 -30 hhcurveto
          hintmask 01111100
          -103 hlineto
          hintmask 10111100
          -159 vlineto
          hintmask 01111100
          11 137 122 2 118 hhcurveto
          hintmask 10111100
          98 105 -2 -11 121 hvcurveto
          159 -97 vlineto
          -29 -25 0 4 -25 -65 callsubr
          392 563 -394 vlineto
          endchar
        </CharString>
        <CharString name="I">
          -453 0 -18 callsubr
          hintmask 01110000
          hintmask 10110000
          68 -13 rmoveto
          hintmask 01110000
          -50 callgsubr
          hintmask 10110000
          -101 callsubr
          hintmask 01110000
          -106 -159 hlineto
          endchar
        </CharString>
        <CharString name="IJ">
          533 -152 148 4 -18 callsubr
          739 320 hintmask 00111100
          68 -13 rmoveto
          hintmask 11011100
          -50 callgsubr
          hintmask 00111100
          100 -55 callsubr
          hintmask 11011100
          -103 callsubr
          -106 hlineto
          hintmask 00111100
          1579 1007 -63 callgsubr
          hintmask 11011100
          -63 callsubr
        </CharString>
        <CharString name="Iacute">
          -453 -53 callsubr
          183 345 -84 callgsubr
          300 1456 -68 callsubr
        </CharString>
        <CharString name="Icircumflex">
          -453 -173 410 73 -4 callsubr
        </CharString>
        <CharString name="Idieresis">
          -453 -53 callsubr
          91 312 hstemhm
          143 330 -204 319 50 330 hintmask 01100100
          hintmask 10100100
          68 -13 rmoveto
          hintmask 01100100
          -50 callgsubr
          hintmask 10100100
          -101 callsubr
          hintmask 01100100
          -106 hlineto
          278 1521 -66 callsubr
          hintmask 00011010
          -85 callsubr
        </CharString>
        <CharString name="Igrave">
          -453 -174 410 73 4 callgsubr
        </CharString>
        <CharString name="Itilde">
          -453 -157 410 73 196 endchar
        </CharString>
        <CharString name="J">
          -324 -152 148 -148 403 1168 -20 hstem
          470 320 vstem
          790 1153 -63 callgsubr
          -63 callsubr
        </CharString>
        <CharString name="Jcircumflex">
          -324 -10 410 74 -4 callsubr
        </CharString>
        <CharString name="K">
          334 0 -18 callsubr
          201 129 hintmask 10111000
          935 800 rmoveto
          19 21 43 42 35 35 255 255 rcurveline
          49 49 37 34 29 24 rrcurveto
          5 34 30 0 36 hhcurveto
          85 hlineto
          46 138 rlineto
          11 -73 -100 5 -124 hhcurveto
          -130 -127 -4 -15 -144 hvcurveto
          -1 -135 rlineto
          74 hlineto
          33 30 0 -5 26 hvcurveto
          -3 -21 -47 -51 -60 -63 -325 -342 rcurveline
          -9 -9 -6 -7 -4 -6 -26 -30 rcurveline
          21 -32 9 -14 8 -17 15 -16 rlinecurve
          282 -395 36 -50 13 -27 12 -30 rlinecurve
          -4 -18 -24 0 -27 hhcurveto
          hintmask 01111000
          -28 hlineto
          hintmask 10111000
          5 -159 rlineto
          10 141 131 3 132 hhcurveto
          hintmask 01111000
          57 hlineto
          hintmask 10111000
          68 83 -5 -8 105 hvcurveto
          -36 159 rlineto
          -67 hlineto
          -29 -27 0 4 -27 hvcurveto
          -79 76 -8 19 -45 58 rrcurveto
          -732 850 rmoveto
          14 callgsubr
          -97 callsubr
          7 -26 4 -34 -47 -299 0 -299 -298 vvcurveto
          -48 -3 -35 -8 -24 vhcurveto
          -4 -25 -28 0 -30 hhcurveto
          hintmask 01111000
          -106 hlineto
          hintmask 10111000
          -159 vlineto
          hintmask 01111000
          10 133 119 3 114 hhcurveto
          hintmask 10111000
          110 116 -3 -10 128 hvcurveto
          159 -106 vlineto
          -31 -28 12 callgsubr
          -7 28 -4 35 44 vvcurveto
          endchar
        </CharString>
        <CharString name="L">
          -24 -7 153 -28 callgsubr
          320 hintmask 01110000
          623 hmoveto
          -79 callsubr
          hintmask 10110000
          -77 hlineto
          2 -159 rlineto
          -1 callsubr
        </CharString>
        <CharString name="Ldotaccent">
          -24 631 -522 76 199 endchar
        </CharString>
        <CharString name="Lslash">
          53 -7 153 -138 -21 342 -21 735 -20 242 -5 callgsubr
          320 hintmask 00110000
          95 521 rmoveto
          -213 vlineto
          788 521 rlineto
          214 vlineto
          -260 -1043 rmoveto
          -79 callsubr
          hintmask 01001100
          -77 hlineto
          2 -159 rlineto
          hintmask 10001100
          -1 callsubr
        </CharString>
        <CharString name="M">
          891 -1 147 -140 -21 1280 152 hstemhm
          hintmask 10100000
          1613 184 rmoveto
          -31 -10 -18 -7 -55 hhcurveto
          hintmask 01100000
          -70 hlineto
          1 -159 rlineto
          10 118 122 3 130 -4 callgsubr
          115 102 -4 -11 104 hvcurveto
          -20 161 rlineto
          -72 hlineto
          -42 -36 1 5 -35 hvcurveto
          -7 24 -9 26 -3 40 -18 207 -39 432 -22 278 rrcurveto
          -4 34 -1 25 22 5 1 5 5 vvcurveto
          8 31 43 2 43 hhcurveto
          75 hlineto
          -5 138 rlineto
          8 -96 -96 6 -112 hhcurveto
          -97 -109 -3 -14 -62 hvcurveto
          -35 -93 -150 -422 -163 -492 -31 78 -225 698 -90 231 rrcurveto
          12 -60 -80 6 -103 hhcurveto
          -134 -102 -4 -11 -103 hvcurveto
          -138 119 vlineto
          36 27 -2 -6 26 hvcurveto
          3 -13 3 -17 -23 vvcurveto
          -13 1 -15 -2 -21 vhcurveto
          -20 -214 -37 -431 -29 -254 -6 -41 -11 -34 -11 -31 rrcurveto
          -4 -31 -33 0 -35 hhcurveto
          hintmask 01100000
          -96 hlineto
          hintmask 10100000
          -20 -161 rlineto
          12 120 110 3 113 hhcurveto
          86 98 -2 -11 121 hvcurveto
          15 159 rlineto
          -87 hlineto
          -37 -29 2 7 -23 hvcurveto
          -6 6 -3 12 21 3 0 3 3 vvcurveto
          3 39 45 618 13 120 46 -134 181 -535 113 -310 rrcurveto
          275 hlineto
          62 175 220 640 48 168 18 -192 42 -516 1 -92 rrcurveto
          endchar
        </CharString>
        <CharString name="N">
          398 0 146 -139 -21 1280 3 callsubr
          290 246 690 232 hintmask 10111000
          290 13 callsubr
          -49 -21 callsubr
          -23 vhcurveto
          -4 -27 -29 -12 callsubr
          hintmask 01111000
          -112 hlineto
          hintmask 10111000
          -160 vlineto
          hintmask 01111000
          12 129 110 2 107 hhcurveto
          hintmask 10111000
          89 103 -2 -12 124 hvcurveto
          160 -111 vlineto
          -31 -29 12 callgsubr
          -5 22 -5 48 40 vvcurveto
          -2 275 -3 287 -3 162 618 -975 rcurveline
          -14 61 49 -2 58 hhcurveto
          129 hlineto
          6 363 6 431 3 367 rrcurveto
          48 3 33 7 26 vhcurveto
          4 30 33 1 34 hhcurveto
          86 139 hlineto
          12 -93 -112 2 -119 hhcurveto
          -131 -103 -5 -12 -83 hvcurveto
          -136 118 vlineto
          31 29 -1 -4 26 hvcurveto
          8 -23 4 -35 -50 vvcurveto
          2 -170 5 -365 -195 vvcurveto
          -217 345 -223 345 -189 288 rrcurveto
          14 -63 -56 3 -60 hhcurveto
          -141 -100 -9 -12 -116 hvcurveto
          -132 124 vlineto
          31 29 0 2 callsubr
          -26 3 -35 -46 -298 1 -299 -299 vvcurveto
          endchar
        </CharString>
        <CharString name="NULL">
          -1310 endchar
        </CharString>
        <CharString name="Nacute">
          398 247 410 78 194 endchar
        </CharString>
        <CharString name="Ntilde">
          398 268 410 78 196 endchar
        </CharString>
        <CharString name="O">
          -44 callgsubr
          hstem
          -43 callsubr
          vstem
          -99 callsubr
          endchar
        </CharString>
        <CharString name="OE">
          881 -30 155 -151 154 -128 -49 callsubr
          648 144 -134 138 467 158 -147 142 -126 154 hstemhm
          114 342 682 322 hintmask 0100010100110000
          hintmask 0100001010110000
          1129 1413 rmoveto
          hintmask 0010010010110000
          -90 -93 23 -133 hhcurveto
          -52 callgsubr
          hvcurveto
          hintmask 0001010010110000
          -42 callsubr
          vhcurveto
          hintmask 0000110010110000
          132 184 30 0 hvcurveto
          hintmask 0010010010110000
          0 398 -8 199 -41 callgsubr
          vhcurveto
          13 196 rlineto
          hintmask 1000010010110000
          127 vlineto
          -76 callsubr
          hintmask 0100010001110000
          -331 504 203 -75 callsubr
          5 125 2 -61 callgsubr
          hintmask 0100010100110000
          -192 467 hlineto
          3 133 44 1 47 -42 callgsubr
          -45 7 -45 7 -45 2 -10 rcurveline
          184 17 -6 42 -12 70 -12 65 rlinecurve
          -25 129 rlineto
          -1614 -714 rmoveto
          hintmask 1000010010110000
          -52 callsubr
          92 224 -28 0 vhcurveto
          hintmask 0010010010110000
          -1108 vlineto
          hintmask 0100010001110000
          0 -225 -21 -91 -49 callgsubr
          endchar
        </CharString>
        <CharString name="Oacute">
          -44 callgsubr
          166 345 -76 callgsubr
          295 903 -68 callgsubr
        </CharString>
        <CharString name="Ocircumflex">
          315 210 410 79 -4 callsubr
        </CharString>
        <CharString name="Odieresis">
          315 269 410 79 14 callsubr
        </CharString>
        <CharString name="Ograve">
          315 209 410 79 4 callgsubr
        </CharString>
        <CharString name="Omega">
          295 0 156 1178 80 hstem
          168 221 787 220 vstem
          1412 309 rmoveto
          -126 -44 -20 -27 -86 hhcurveto
          -207 hlineto
          193 186 148 194 250 vvcurveto
          379 -242 249 -368 -355 -263 -253 -393 -281 164 -192 165 -139 vhcurveto
          -194 hlineto
          -87 -29 45 106 -35 hvcurveto
          -68 hlineto
          51 -307 rlineto
          500 hlineto
          22 50 -52 85 rlineto
          -137 224 -79 184 211 vvcurveto
          409 163 171 226 223 175 -177 -398 -272 -155 -232 -118 -205 vhcurveto
          18 -50 rlineto
          506 hlineto
          54 307 rlineto
          endchar
        </CharString>
        <CharString name="Oslash">
          254 -30 154 1158 154 hstem
          -43 callsubr
          vstem
          813 124 rmoveto
          -73 -60 18 35 -50 hvcurveto
          468 920 rlineto
          47 -96 23 -131 -168 vvcurveto
          -391 -129 -187 -226 vhcurveto
          -357 575 rmoveto
          -52 callsubr
          80 68 -24 -47 54 vhcurveto
          -473 -933 rlineto
          -57 98 -29 140 183 vvcurveto
          1054 3 rmoveto
          294 -111 219 -192 111 vhcurveto
          59 121 rlineto
          35 -16 -21 7 -28 hhcurveto
          -15 -17 -2 -5 -17 hvcurveto
          -54 -100 rlineto
          35 -87 -92 19 -106 hhcurveto
          -52 callgsubr
          -306 119 -213 207 -117 hvcurveto
          -51 -104 rlineto
          -36 16 19 -9 33 hhcurveto
          14 15 2 3 16 hvcurveto
          50 93 rlineto
          -28 82 80 -17 99 hhcurveto
          -40 callgsubr
          hvcurveto
          endchar
        </CharString>
        <CharString name="Otilde">
          -44 callgsubr
          225 155 -49 153 -20 callsubr
          hintmask 11001100
          -99 callsubr
          407 1162 -71 callsubr
        </CharString>
        <CharString name="P">
          83 0 146 -139 -21 581 150 548 159 hstemhm
          289 319 388 326 hintmask 10111100
          289 13 callsubr
          -50 -21 callsubr
          -22 vhcurveto
          -4 -27 -29 -12 callsubr
          hintmask 01111100
          -112 hlineto
          hintmask 10111100
          -160 vlineto
          hintmask 01111100
          12 145 124 2 117 hhcurveto
          hintmask 10111100
          99 113 -2 -12 138 hvcurveto
          160 -110 vlineto
          -31 -29 12 callgsubr
          -18 74 7 -20 365 vvcurveto
          -2 46 40 0 37 hhcurveto
          406 184 159 268 hvcurveto
          343 -4 -237 87 -383 hhcurveto
          -247 -209 -6 -17 -173 hvcurveto
          -136 123 vlineto
          32 32 -1 -2 22 hvcurveto
          7 -23 4 -35 -46 -300 0 -300 -301 vvcurveto
          415 1008 rmoveto
          204 88 -75 -200 -191 -85 -86 -264 hvcurveto
          -14 -13 1 -12 hhcurveto
          551 vlineto
          endchar
        </CharString>
        <CharString name="Q">
          368 -226 173 -173 350 1158 154 hstemhm
          114 341 711 338 hintmask 01111000
          455 699 rmoveto
          391 130 192 225 227 129 -194 -387 -395 -130 -182 -226 -234 -121 196 379 vhcurveto
          1049 40 rmoveto
          434 -1 -276 263 -417 hhcurveto
          -429 -267 -268 -460 -376 167 -240 283 -86 hvcurveto
          43 -29 47 -23 49 -19 rrcurveto
          -121 134 144 -40 157 hhcurveto
          137 141 33 57 147 hvcurveto
          -37 131 rlineto
          hintmask 10111000
          -33 -119 -80 -15 -78 hhcurveto
          -74 -87 14 50 -56 hvcurveto
          320 91 152 302 335 vvcurveto
          endchar
        </CharString>
        <CharString name="R">
          -19 callgsubr
          hstem
          -15 callgsubr
          vstem
          -105 callsubr
          endchar
        </CharString>
        <CharString name="Racute">
          234 165 410 82 194 endchar
        </CharString>
        <CharString name="Rcaron">
          234 155 410 82 207 endchar
        </CharString>
        <CharString name="Rcommaaccent">
          234 -774 -18 callgsubr
          169 146 1119 159 hstemhm
          288 320 -22 352 72 327 hintmask 00111010
          -105 callsubr
          33 -2060 -51 callgsubr
          rrcurveto
          hintmask 11000100
          6 callgsubr
        </CharString>
        <CharString name="S">
          -32 -30 147 1319 -20 hstem
          107 319 425 324 vstem
          -87 callsubr
          endchar
        </CharString>
        <CharString name="Scaron">
          -32 22 410 83 207 endchar
        </CharString>
        <CharString name="T">
          106 0 -25 callgsubr
          hintmask 10101000
          -56 callsubr
          hintmask 10011000
          -44 callsubr
          hintmask 01101000
          -91 hlineto
          hintmask 10101000
          -159 vlineto
          hintmask 01101000
          11 140 1 callsubr
          hintmask 10011000
          -36 callsubr
          hintmask 10101000
          -22 callgsubr
          162 hlineto
          endchar
        </CharString>
        <CharString name="Thorn">
          -10 -3 134 -118 -21 341 149 537 154 -154 397 hstemhm
          285 319 387 326 hintmask 10101110
          710 1019 rmoveto
          197 84 -79 -191 -166 -74 -101 -218 hvcurveto
          -51 hlineto
          -16 -15 0 1 -13 hvcurveto
          534 vlineto
          2 35 30 0 41 hhcurveto
          -425 -776 rmoveto
          -48 -4 -36 -7 -23 -10 callsubr
          -105 hlineto
          hintmask 10110110
          -134 vlineto
          hintmask 01110110
          -3 156 144 -2 148 hhcurveto
          96 90 1 2 87 hvcurveto
          136 -107 vlineto
          -30 -29 1 4 -25 hvcurveto
          -9 30 -1 81 89 vvcurveto
          -3 30 27 0 24 hhcurveto
          435 196 148 269 hvcurveto
          hintmask 10110110
          329 -240 94 -341 -45 -44 0 -1 -42 vhcurveto
          43 4 33 6 24 vhcurveto
          6 -37 callsubr
          107 118 hlineto
          14 -102 -129 6 -148 hhcurveto
          -166 -87 -8 -14 -90 hvcurveto
          -116 76 vlineto
          41 38 0 -6 35 hvcurveto
          7 -27 3 -34 -46 -307 1 -307 -308 vvcurveto
          endchar
        </CharString>
        <CharString name="U">
          -45 callgsubr
          hstem
          -27 callgsubr
          vstem
          -105 callgsubr
          638 vlineto
          endchar
        </CharString>
        <CharString name="Uacute">
          -45 callgsubr
          183 345 -91 callsubr
          -657 1087 -68 callgsubr
        </CharString>
        <CharString name="Ucircumflex">
          349 227 410 85 -4 callsubr
        </CharString>
        <CharString name="Udieresis">
          -45 callgsubr
          91 312 hstemhm
          233 320 -9 -23 callgsubr
          -217 273 hintmask 11010010
          -105 callgsubr
          -678 1152 -66 callsubr
          hintmask 00101100
          -85 callsubr
        </CharString>
        <CharString name="Ugrave">
          349 226 410 85 4 callgsubr
        </CharString>
        <CharString name="V">
          377 16 -21 1270 154 -1 10 callgsubr
          888 365 rmoveto
          -98 263 -99 264 -99 264 -13 35 -15 33 -7 36 rrcurveto
          5 24 28 0 31 hhcurveto
          68 hlineto
          -29 6 callsubr
          9 -76 -91 5 -104 hhcurveto
          -177 -120 -3 -11 -111 hvcurveto
          23 7 callgsubr
          96 hlineto
          30 26 0 -5 28 hvcurveto
          20 -27 18 -32 19 -48 429 -1094 rcurveline
          -53 21 54 -11 92 hhcurveto
          146 hlineto
          154 340 155 410 139 408 18 52 15 33 13 22 rrcurveto
          5 36 37 0 39 -4 callgsubr
          55 hlineto
          24 6 callsubr
          hintmask 11000000
          10 -78 -89 3 -95 hhcurveto
          -112 -112 1 -14 -116 hvcurveto
          -25 7 callgsubr
          67 hlineto
          31 28 0 -5 24 hvcurveto
          -4 -32 -6 -34 -14 -41 -281 -824 rcurveline
          endchar
        </CharString>
        <CharString name="W">
          1119 16 -21 1423 -20 21 10 callgsubr
          1952 1197 rmoveto
          -1 -245 -870 0 vhcurveto
          -287 914 rlineto
          79 -26 -19 71 -92 hhcurveto
          -162 hlineto
          -12 -68 1 -106 -29 -109 rrcurveto
          -384 -102 -120 -394 1 hhcurveto
          -258 827 -16 41 -12 33 -7 30 rlinecurve
          5 24 28 0 30 hhcurveto
          68 hlineto
          -28 6 callsubr
          hintmask 10100000
          9 -80 -93 5 -162 hhcurveto
          -167 -91 -5 -9 -87 hvcurveto
          24 7 callgsubr
          81 hlineto
          34 32 0 -5 32 hvcurveto
          18 -24 15 -20 24 -63 374 -1094 rcurveline
          -49 13 34 -15 59 hhcurveto
          214 hlineto
          97 258 86 285 85 319 251 -770 rcurveline
          -85 23 32 -7 95 hhcurveto
          177 hlineto
          94 229 92 264 89 284 44 151 83 287 23 50 rrcurveto
          5 31 31 0 35 hhcurveto
          70 hlineto
          19 6 callsubr
          10 -79 -87 3 -161 hhcurveto
          -142 -70 -5 -8 -64 hvcurveto
          -19 7 callgsubr
          72 hlineto
          49 41 -6 -32 -9 -2 -9 -6 -12 hvcurveto
          endchar
        </CharString>
        <CharString name="X">
          363 -53 callsubr
          hstemhm
          hintmask 10100000
          999 254 rmoveto
          31 -43 15 -29 7 -23 rrcurveto
          -10 -13 -21 -3 -27 hhcurveto
          hintmask 01100000
          -78 hlineto
          hintmask 10100000
          6 -53 6 -53 6 -53 rrcurveto
          hintmask 01100000
          11 140 116 2 94 -4 callgsubr
          105 101 -2 -11 123 hvcurveto
          -11 159 rlineto
          -52 hlineto
          -27 -23 2 9 -23 hvcurveto
          -39 28 -30 46 -40 49 -355 441 rcurveline
          85 110 103 128 144 188 46 60 33 32 31 21 rrcurveto
          5 27 25 0 27 hhcurveto
          85 hlineto
          34 6 callsubr
          10 -75 -88 4 -107 hhcurveto
          -148 -98 -4 -10 -92 hvcurveto
          -39 7 callgsubr
          87 hlineto
          31 21 -4 -15 12 hvcurveto
          -9 -28 -23 -37 -41 -56 -189 -274 rcurveline
          -217 318 -28 40 -13 19 -3 24 rlinecurve
          11 12 20 2 28 hhcurveto
          74 hlineto
          -30 6 callsubr
          10 -80 -94 4 -138 hhcurveto
          -78 hlineto
          -129 -100 -6 -8 -89 hvcurveto
          35 7 callgsubr
          75 hlineto
          78 23 -27 -77 59 hvcurveto
          349 -469 -355 -431 -45 -54 -32 -39 -33 -18 rlinecurve
          -4 -26 -25 0 -28 hhcurveto
          hintmask 01100000
          -73 hlineto
          hintmask 10100000
          -3 -53 -4 -53 -4 -53 rrcurveto
          hintmask 01100000
          11 119 97 2 92 -4 callgsubr
          99 109 -2 -11 117 hvcurveto
          7 53 7 53 7 53 rrcurveto
          -88 hlineto
          -30 -22 4 12 -13 hvcurveto
          5 24 14 29 28 41 209 302 rcurveline
          224 -304 rlineto
          endchar
        </CharString>
        <CharString name="Y">
          272 0 136 -128 -21 1278 154 hstemhm
          635 321 hintmask 10110000
          1085 -9 callgsubr
          -41 -88 -103 -203 -87 -158 -267 465 rcurveline
          -15 26 -11 23 -10 42 rrcurveto
          5 23 28 0 31 hhcurveto
          67 hlineto
          -16 6 callsubr
          11 -91 -113 3 -187 hhcurveto
          -105 -97 -5 -9 -96 hvcurveto
          26 7 callgsubr
          69 hlineto
          30 29 0 -5 27 hvcurveto
          23 -16 11 -35 34 -56 349 -587 rcurveline
          15 -25 11 -26 16 -25 rrcurveto
          -253 vlineto
          -40 -3 -32 -7 -24 vhcurveto
          -5 -26 -27 0 -30 hhcurveto
          hintmask 01110000
          -106 hlineto
          hintmask 10110000
          -149 vlineto
          hintmask 01110000
          11 139 1 callsubr
          hintmask 10110000
          102 -55 callsubr
          149 -107 vlineto
          -31 -27 1 4 -26 hvcurveto
          -6 34 -4 46 55 vvcurveto
          239 vlineto
          173 300 331 568 -167 -244 89 121 rlinecurve
          5 26 26 0 28 hhcurveto
          91 hlineto
          32 6 callsubr
          10 -72 -81 4 -139 hhcurveto
          -117 -100 -4 -10 -91 hvcurveto
          -29 7 callgsubr
          87 hlineto
          29 26 0 -5 21 hvcurveto
          -6 -34 -10 -33 -18 -40 rrcurveto
          endchar
        </CharString>
        <CharString name="Yacute">
          272 184 410 89 194 endchar
        </CharString>
        <CharString name="Ydieresis">
          272 120 410 89 14 callsubr
        </CharString>
        <CharString name="Z">
          10 0 152 1105 156 hstem
          1016 216 vstem
          100 1390 rmoveto
          9 -95 26 -174 6 -71 rrcurveto
          69 66 1 66 hhcurveto
          16 -1 17 16 vvcurveto
          44 1 42 2 19 vhcurveto
          41 48 164 11 76 hhcurveto
          234 hlineto
          -774 -1083 rlineto
          -82 vlineto
          -41 6 -40 47 -11 vhcurveto
          87 113 0 595 hhcurveto
          108 92 -1 14 82 hvcurveto
          7 57 3 39 20 vvcurveto
          -2 81 -7 178 -2 46 rrcurveto
          -26 -109 7 1 -70 hvcurveto
          -164 -47 -65 -58 -54 vhcurveto
          -5 -48 -49 -2 -48 hhcurveto
          -331 hlineto
          792 1096 rlineto
          90 vlineto
          68 -65 7 -69 vhcurveto
          -439 hlineto
          -200 -182 -9 -14 -172 hvcurveto
          endchar
        </CharString>
        <CharString name="Zcaron">
          10 43 410 90 207 endchar
        </CharString>
        <CharString name="a">
          -59 callgsubr
          hstem
          -30 callsubr
          vstem
          -106 callgsubr
          endchar
        </CharString>
        <CharString name="aacute">
          -59 callgsubr
          158 345 -90 callgsubr
          -143 994 -68 callsubr
        </CharString>
        <CharString name="acircumflex">
          -19 43 0 97 -4 callsubr
        </CharString>
        <CharString name="acute">
          -94 1192 345 hstem
          546 1192 -54 callgsubr
          endchar
        </CharString>
        <CharString name="adieresis">
          -19 102 0 97 14 callsubr
        </CharString>
        <CharString name="ae">
          501 -25 154 336 128 311 134 hstem
          97 309 329 319 394 300 vstem
          777 190 rmoveto
          -45 -79 -76 -30 -65 hhcurveto
          -95 -56 54 112 138 94 58 164 25 25 -1 -1 22 hvcurveto
          3 -120 13 -92 25 -73 rrcurveto
          277 407 rmoveto
          203 14 69 104 127 hhcurveto
          128 56 -131 -158 -6 0 -6 -1 -6 hvcurveto
          212 -373 rmoveto
          -66 -90 -92 -29 -94 hhcurveto
          -191 -115 118 218 -22 hvcurveto
          503 hlineto
          132 58 24 149 251 -191 149 -257 -145 -120 -43 -81 -94 hvcurveto
          82 -73 -116 42 -166 hhcurveto
          -242 -210 -99 -124 -10 hvcurveto
          188 -120 rlineto
          115 76 92 97 133 hhcurveto
          93 29 -58 -204 -60 callgsubr
          -195 148 -102 207 121 107 51 57 88 hvcurveto
          54 35 25 18 21 11 rrcurveto
          -114 97 147 -58 189 hhcurveto
          180 139 48 109 92 hvcurveto
          endchar
        </CharString>
        <CharString name="agrave">
          -19 42 0 97 4 callgsubr
        </CharString>
        <CharString name="ampersand">
          205 -30 148 550 144 468 133 hstemhm
          85 314 -275 275 509 263 hintmask 11110100
          674 812 rmoveto
          -175 -77 102 144 120 84 102 155 135 66 -85 -172 43 hvcurveto
          185 hlineto
          12 316 rlineto
          41 -135 -152 35 -155 hhcurveto
          hintmask 11101100
          -357 -179 -137 -222 -159 96 -106 168 -46 hvcurveto
          -1 0 -1 -1 vvcurveto
          -204 -59 -99 -141 -167 vvcurveto
          -278 198 -127 365 354 171 155 292 84 -8 89 -5 78 vhcurveto
          115 48 -26 -133 22 hvcurveto
          31 31 -1 32 hhcurveto
          304 vlineto
          -535 -240 rmoveto
          2 -46 3 -48 -1 -55 rrcurveto
          -187 -76 -119 -165 -192 -76 99 155 191 99 106 148 vhcurveto
          254 hlineto
          endchar
        </CharString>
        <CharString name="approxequal">
          -140 259 137 -123 -21 151 137 60 139 6 139 9 -20 hstemhm
          hintmask 10111000
          988 548 rmoveto
          hintmask 01111000
          -98 -59 -49 -54 -73 hhcurveto
          -62 -50 28 27 -43 hvcurveto
          51 -84 -63 38 -92 hhcurveto
          -125 -109 -80 -128 -66 hvcurveto
          hintmask 10110100
          95 -80 5 8 rlineto
          51 32 59 92 95 hhcurveto
          48 47 -21 -30 53 hvcurveto
          -34 58 70 -59 129 hhcurveto
          121 89 81 124 69 hvcurveto
          -95 429 rmoveto
          -100 -58 -51 -54 -72 hhcurveto
          -57 -38 25 35 -66 hvcurveto
          28 -52 -77 57 -104 hhcurveto
          -126 -108 -81 -127 -66 hvcurveto
          95 -79 rlineto
          hintmask 10111000
          98 67 50 50 74 hhcurveto
          58 28 -16 -43 73 hvcurveto
          -50 66 91 -36 90 hhcurveto
          120 90 83 123 68 hvcurveto
          endchar
        </CharString>
        <CharString name="aring">
          -59 callgsubr
          141 86 243 84 hstemhm
          97 309 20 95 214 312 -278 95 hintmask 1110010100000000
          -106 callgsubr
          42 1184 -32 callgsubr
          vhcurveto
          hintmask 0001101010000000
          -46 callgsubr
        </CharString>
        <CharString name="asciicircum">
          -77 470 -21 846 -20 hstem
          723 1284 rmoveto
          10 -19 -19 2 -19 -14 -15 -1 -119 hhcurveto
          -382 -679 -20 -35 -11 -29 -6 -24 rlinecurve
          6 -32 33 -7 41 -9 128 -30 rcurveline
          310 565 rlineto
          0 0 0 1 vhcurveto
          312 -566 132 29 rlineto
          48 8 18 23 30 vvcurveto
          23 -11 28 -15 26 vhcurveto
          -379 668 rlineto
          endchar
        </CharString>
        <CharString name="asciitilde">
          -106 394 144 -8 141 hstemhm
          hintmask 10000000
          1026 645 rmoveto
          hintmask 01000000
          -54 -31 -71 -53 -101 hhcurveto
          -55 -45 19 41 -90 hvcurveto
          30 -68 -96 43 -99 hhcurveto
          -97 -134 -75 -101 -26 hvcurveto
          11 -24 25 -32 40 -41 rrcurveto
          hintmask 10000000
          82 50 62 50 73 hhcurveto
          40 48 -10 -21 51 hvcurveto
          -55 136 82 -50 116 hhcurveto
          109 103 53 96 31 hvcurveto
          -11 28 -22 34 -31 40 rrcurveto
          endchar
        </CharString>
        <CharString name="asterisk">
          -392 686 -21 775 -20 hstem
          483 982 rmoveto
          128 -183 17 -25 16 -23 19 -19 rlinecurve
          17 10 17 10 18 16 80 70 rcurveline
          -247 203 227 44 23 4 20 7 16 8 rlinecurve
          -3 16 -4 19 -5 21 -32 92 rcurveline
          -270 -126 34 87 61 140 17 46 rlinecurve
          -173 41 -30 -301 -136 170 -15 21 -18 21 -19 21 rlinecurve
          -43 -25 -41 -48 -41 -40 253 -179 rcurveline
          -212 -44 -29 -6 -27 -8 -23 -8 rlinecurve
          9 -51 22 -53 16 -51 268 135 rcurveline
          -33 -97 -28 -69 -48 -104 27 -7 48 -36 97 -16 rrcurveto
          endchar
        </CharString>
        <CharString name="at">
          512 -169 113 275 115 656 104 247 119 hstem
          119 193 237 197 851 130 vstem
          746 532 rmoveto
          242 158 216 139 65 35 -36 -55 11 vhcurveto
          -217 -30 -47 -342 -194 hhcurveto
          -85 -52 84 108 hvcurveto
          745 -442 rmoveto
          -97 -158 -167 -49 -179 hhcurveto
          -380 -295 273 404 448 307 272 362 367 249 -249 -324 -242 -135 -192 -125 -70 -29 37 80 37 4 31 9 40 hvcurveto
          53 238 26 119 28 112 -28 34 -47 26 -76 8 -17 -70 rcurveline
          46 -34 -53 22 -65 hhcurveto
          -263 -226 -239 -323 -203 118 -110 158 62 48 37 53 29 hvcurveto
          56 42 30 43 31 hvcurveto
          -94 31 73 -69 119 hhcurveto
          226 185 257 287 416 -312 281 -432 -479 -385 -347 -485 -436 345 -361 508 194 198 63 111 172 hvcurveto
          endchar
        </CharString>
        <CharString name="atilde">
          -59 callgsubr
          217 -13 callgsubr
          -30 callsubr
          hintmask 11100110
          -106 callgsubr
          -31 1253 -70 callgsubr
        </CharString>
        <CharString name="b">
          73 5 -2 callgsubr
          hstemhm
          218 313 423 325 hintmask 01111100
          145 8 rmoveto
          242 -6 163 -12 165 -2 rrcurveto
          -47 callsubr
          -35 callsubr
          vvcurveto
          -911 vlineto
          -139 -4 -62 -63 -39 vhcurveto
          803 432 rmoveto
          hintmask 10111100
          -58 callsubr
        </CharString>
        <CharString name="backslash">
          -349 2 -21 1498 -20 hstem
          299 1413 rmoveto
          46 -23 -30 20 -67 hhcurveto
          -179 hlineto
          670 -1449 rlineto
          -33 17 36 -16 56 hhcurveto
          182 hlineto
          -662 1432 rlineto
          endchar
        </CharString>
        <CharString name="bar">
          -76 -216 -21 1744 -20 hstem
          504 224 vstem
          728 1420 rmoveto
          63 -6 -43 24 -78 hhcurveto
          -97 -1556 hlineto
          -56 3 -48 10 -41 vhcurveto
          -31 19 34 -12 61 hhcurveto
          97 1657 hlineto
          endchar
        </CharString>
        <CharString name="braceleft">
          -562 -201 -21 1652 91 hstem
          206 263 vstem
          468 1271 rmoveto
          125 40 25 157 9 vhcurveto
          26 vlineto
          59 -4 -62 6 -74 hhcurveto
          -194 -123 -43 -197 hvcurveto
          -412 vlineto
          -79 -61 -56 -65 -38 vhcurveto
          -66 vlineto
          85 -32 41 -59 -108 vvcurveto
          -402 vlineto
          -203 119 -48 189 45 41 7 13 43 vhcurveto
          13 15 7 16 15 vvcurveto
          24 vlineto
          -52 5 -42 5 -33 9 rrcurveto
          -47 12 -23 -14 143 vvcurveto
          389 vlineto
          119 -48 76 -87 37 vhcurveto
          91 37 44 81 116 vvcurveto
          388 vlineto
          endchar
        </CharString>
        <CharString name="braceright">
          -566 -222 92 1561 90 hstem
          278 261 vstem
          222 1521 rmoveto
          -82 -58 -9 -56 hvcurveto
          -25 vlineto
          150 -12 46 -12 -158 -87 -2 -161 -89 vvcurveto
          -121 34 -103 104 -39 vhcurveto
          -106 -45 -30 -100 -149 -87 -2 -153 -87 vvcurveto
          -130 -42 -16 -152 -12 vhcurveto
          -29 vlineto
          -58 72 -5 56 126 98 13 69 55 vhcurveto
          46 58 4 93 131 vvcurveto
          186 vlineto
          175 9 86 113 41 vhcurveto
          93 vlineto
          -66 28 -55 61 88 vvcurveto
          305 vlineto
          256 -78 60 -240 vhcurveto
          endchar
        </CharString>
        <CharString name="bracketleft">
          -569 -219 127 1488 125 hstem
          205 262 vstem
          467 1396 rmoveto
          200 45 hlineto
          70 -37 10 -113 vhcurveto
          -312 -1740 345 hlineto
          34 83 -4 79 hvcurveto
          52 -200 vlineto
          endchar
        </CharString>
        <CharString name="bracketright">
          -567 -219 127 1488 126 hstem
          275 263 vstem
          76 -183 rmoveto
          -37 45 75 1 80 hhcurveto
          262 1741 -438 hlineto
          -18 -16 -6 -22 -35 vvcurveto
          -53 199 -1488 -199 vlineto
          endchar
        </CharString>
        <CharString name="breve">
          -9 1220 -21 308 -20 hstem
          607 1407 rmoveto
          -103 -83 27 73 -52 hvcurveto
          -86 -19 rlineto
          -181 6 156 -108 206 hhcurveto
          196 165 101 188 6 hvcurveto
          -200 19 rlineto
          -86 -9 -46 -48 -77 hhcurveto
          -31 -26 12 22 -22 hvcurveto
          endchar
        </CharString>
        <CharString name="brokenbar">
          -375 -406 -21 1920 -20 hstem
          350 236 vstem
          586 303 rmoveto
          48 -15 -39 15 -75 hhcurveto
          -107 -653 hlineto
          -108 15 -32 91 vhcurveto
          130 hlineto
          1857 vmoveto
          47 -15 -40 16 -74 hhcurveto
          -107 -690 hlineto
          -86 26 -18 101 vhcurveto
          109 hlineto
          endchar
        </CharString>
        <CharString name="bullet">
          -472 362 -21 566 -20 hstem
          107 623 rmoveto
          -163 134 -119 178 174 139 116 167 163 -135 120 -178 -173 -139 -117 -167 vhcurveto
          endchar
        </CharString>
        <CharString name="c">
          -171 -23 146 598 313 -140 140 hstemhm
          105 318 hintmask 11010000
          1042 223 rmoveto
          -67 -109 -102 -33 -137 hhcurveto
          -159 -112 135 281 hvcurveto
          hintmask 10110000
          220 102 135 140 86 63 -52 -121 61 vhcurveto
          168 hlineto
          17 200 rlineto
          73 -87 -134 40 -154 hhcurveto
          -315 -265 -178 -360 -331 231 -188 334 152 135 34 67 101 hvcurveto
          -16 145 rlineto
          endchar
        </CharString>
        <CharString name="caron">
          -75 1210 -21 362 -20 hstem
          487 1209 -92 callsubr
          183 -251 rcurveline
          endchar
        </CharString>
        <CharString name="ccedilla">
          -171 236 0 99 203 endchar
        </CharString>
        <CharString name="cedilla">
          -635 -498 108 -108 402 107 -20 hstemhm
          387 167 hintmask 10110000
          119 -366 rmoveto
          -4 -18 -2 -17 -16 vvcurveto
          -16 2 -13 4 -11 vhcurveto
          -25 39 58 -16 80 hhcurveto
          154 104 74 152 hvcurveto
          hintmask 01110000
          126 -84 42 -141 8 vhcurveto
          56 107 rlineto
          -101 hlineto
          -85 -174 17 -8 20 -6 14 -9 rlinecurve
          4 17 12 4 8 hhcurveto
          63 -10 37 -34 -69 vvcurveto
          -63 -52 -36 -82 -39 -47 10 14 -48 vhcurveto
          endchar
        </CharString>
        <CharString name="cent">
          -92 -158 -21 217 144 1132 -20 hstem
          140 319 163 124 vstem
          1058 309 rmoveto
          -98 -82 -93 -44 -121 -1 rrcurveto
          758 vlineto
          63 -18 43 -46 39 -81 182 -11 rcurveline
          31 155 2 19 1 18 1 19 rlinecurve
          90 -79 -261 12 -10 hhcurveto
          -12 133 hlineto
          70 -20 14 -70 vhcurveto
          -34 -226 hlineto
          -266 -41 -216 -175 -326 vvcurveto
          -298 189 -184 293 -25 vhcurveto
          -129 vlineto
          -69 8 -20 82 vhcurveto
          34 217 hlineto
          151 11 134 52 76 112 rrcurveto
          -485 -5 rmoveto
          -101 53 -62 122 195 vvcurveto
          195 60 121 103 50 vhcurveto
          endchar
        </CharString>
        <CharString name="circumflex">
          -105 1228 12 callsubr
          hstem
          945 1228 -80 callsubr
          endchar
        </CharString>
        <CharString name="colon">
          -662 -28 326 408 325 hstem
          155 335 vstem
          157 870 rmoveto
          -98 61 -66 112 93 71 60 108 86 -68 71 -98 -100 -71 -64 -97 vhcurveto
          166 -572 rmoveto
          -97 -71 -60 -106 -91 60 -69 112 89 74 55 106 89 -70 76 -97 hvcurveto
          endchar
        </CharString>
        <CharString name="comma">
          -732 -324 -18 callgsubr
          hstem
          96 352 vstem
          151 -345 -51 callgsubr
          6 callgsubr
        </CharString>
        <CharString name="copyright">
          414 -39 139 213 106 587 104 206 139 hstem
          113 154 193 234 768 149 vstem
          267 707 -69 callgsubr
          1047 -210 rmoveto
          -52 -82 -76 -25 -102 hhcurveto
          -121 -85 100 217 145 65 125 119 66 49 -39 -94 46 hvcurveto
          121 hlineto
          12 150 rlineto
          54 -61 -104 33 -114 hhcurveto
          -234 -199 -135 -272 -248 174 -142 249 112 106 29 47 70 hvcurveto
          endchar
        </CharString>
        <CharString name="currency">
          -6 169 -21 105 173 531 173 108 -20 hstem
          160 346 353 345 vstem
          1096 1108 rmoveto
          1 2 0 4 7 vvcurveto
          34 -29 29 -32 31 vhcurveto
          -9 9 -132 -132 rlineto
          60 -81 -92 32 -97 hhcurveto
          -97 -90 -30 -61 -82 hvcurveto
          -80 80 -17 17 -17 11 -16 9 rlinecurve
          -31 -13 -31 -38 -31 -28 133 -131 rcurveline
          -60 -76 -30 -90 -103 vvcurveto
          -103 30 -90 60 -76 vhcurveto
          -82 -81 -17 -17 -12 -17 -9 -19 rlinecurve
          15 -27 36 -33 29 -28 131 129 rcurveline
          -57 76 91 -33 100 hhcurveto
          100 96 34 56 77 hvcurveto
          39 -39 53 -65 35 -13 28 12 31 31 27 27 8 8 rcurveline
          -130 132 rlineto
          61 75 30 89 104 vvcurveto
          103 -30 91 -60 78 vhcurveto
          -681 -271 13 callgsubr
          139 139 180 181 139 -141 -183 -181 -139 -142 -181 -176 -143 135 188 vhcurveto
          endchar
        </CharString>
        <CharString name="d">
          72 -23 146 771 144 456 -20 hstem
          104 327 428 309 vstem
          1168 1396 rmoveto
          70 -5 28 -76 -178 -132 -12 -25 -104 vhcurveto
          -100 92 vlineto
          33 27 -3 -4 27 hvcurveto
          3 -25 1 -27 -28 vvcurveto
          -323 vlineto
          61 -88 -95 30 -108 hhcurveto
          -288 -173 -206 -343 -312 192 -200 259 126 114 43 99 80 hvcurveto
          -110 18 37 -20 116 hhcurveto
          109 102 13 23 92 hvcurveto
          98 -170 vlineto
          -6 30 -5 42 62 vvcurveto
          -309 31 rmoveto
          -105 -39 -79 -60 -95 hhcurveto
          -143 -72 121 256 200 48 194 171 61 82 -27 -46 60 hvcurveto
          5 -172 1 -175 -186 vvcurveto
          endchar
        </CharString>
        <CharString name="dagger">
          -358 21 -21 939 127 313 5 callsubr
          939 rmoveto
          -939 178 939 304 127 -304 313 -178 -313 -305 -127 vlineto
          endchar
        </CharString>
        <CharString name="daggerdbl">
          -358 21 -21 275 129 572 128 275 5 callsubr
          976 rmoveto
          -572 -305 -129 305 -275 178 275 304 129 -304 572 304 128 -304 275 -178 -275 -305 -128 vlineto
          endchar
        </CharString>
        <CharString name="degree">
          -583 916 93 329 92 hstem
          98 98 332 99 vstem
          196 1174 rmoveto
          92 71 72 95 95 71 -72 -92 -95 -71 -70 -95 -92 -74 69 96 vhcurveto
          -98 hmoveto
          -148 115 -110 149 151 114 111 147 146 -115 110 -150 -148 -116 -108 -148 vhcurveto
          endchar
        </CharString>
        <CharString name="dieresis">
          -209 1100 312 hstem
          258 -23 callgsubr
          vstem
          461 1257 -61 callsubr
          -9 callsubr
          vhcurveto
          -83 callgsubr
        </CharString>
        <CharString name="divide">
          -148 0 296 119 175 119 297 hstem
          371 312 vstem
          717 859 rmoveto
          88 -67 59 -89 -91 -65 -59 -88 -92 60 -58 96 96 60 58 92 vhcurveto
          -4 -710 rmoveto
          88 -65 59 -91 -91 -65 -59 -88 -92 60 -57 96 96 60 57 92 vhcurveto
          242 441 rmoveto
          -685 hlineto
          -79 -28 -15 -69 hvcurveto
          -91 716 vlineto
          49 27 44 56 hvcurveto
          endchar
        </CharString>
        <CharString name="dollar">
          28 -192 -21 1779 -20 hstem
          146 310 159 122 156 320 vstem
          893 333 rmoveto
          -105 -62 -82 -94 -21 vhcurveto
          431 vlineto
          99 -58 57 -65 -100 vvcurveto
          -433 787 rmoveto
          12 88 49 68 94 16 rrcurveto
          -421 vlineto
          -101 49 -58 64 105 vvcurveto
          11 0 10 4 10 vhcurveto
          277 386 rmoveto
          46 -5 -25 14 -57 hhcurveto
          -35 -30 rlineto
          -102 vlineto
          -287 -28 -182 -136 -219 vvcurveto
          -242 234 -79 235 -114 vhcurveto
          -491 vlineto
          -97 18 -67 62 -54 135 -198 79 rcurveline
          -73 -177 rlineto
          -5 -29 -3 -31 -30 vvcurveto
          10 -22 18 -13 28 -17 127 -80 146 -42 168 -6 rrcurveto
          -96 vlineto
          -71 9 -18 78 vhcurveto
          35 40 rlineto
          146 vlineto
          284 19 192 154 231 vvcurveto
          238 -241 105 -235 98 vhcurveto
          459 vlineto
          75 -21 50 -63 38 -77 193 -47 rcurveline
          51 179 rlineto
          2 8 2 11 7 vvcurveto
          4 0 1 -1 vhcurveto
          2 16 1 17 15 vvcurveto
          76 -53 -170 38 -190 hhcurveto
          endchar
        </CharString>
        <CharString name="dotaccent">
          -564 1233 323 hstem
          206 335 vstem
          379 1233 -17 callgsubr
          -93 59 -68 114 hvcurveto
          endchar
        </CharString>
        <CharString name="dotaccentcmb">
          -598 525 327 hstem
          189 333 vstem
          356 525 rmoveto
          106 1 60 71 91 vvcurveto
          88 -65 76 -102 -102 -13 callsubr
          106 vhcurveto
          endchar
        </CharString>
        <CharString name="dotlessi">
          -30 callgsubr
          hstem
          2 callgsubr
          vstem
          -99 callgsubr
          -519 vlineto
          endchar
        </CharString>
        <CharString name="dotlessj">
          -16 callgsubr
          -19 callsubr
          hintmask 11110000
          685 968 -97 callgsubr
          hintmask 11101000
          -59 callsubr
          endchar
        </CharString>
        <CharString name="e">
          -55 callgsubr
          hstem
          -21 callgsubr
          vstem
          -100 callgsubr
          endchar
        </CharString>
        <CharString name="eacute">
          -55 callgsubr
          158 345 -78 callgsubr
          -271 595 -68 callsubr
        </CharString>
        <CharString name="ecircumflex">
          -99 3 0 101 -4 callsubr
        </CharString>
        <CharString name="edieresis">
          -55 callgsubr
          66 312 hstemhm
          105 318 -103 -23 callgsubr
          -328 299 hintmask 11101001
          -100 callgsubr
          -293 660 -66 callsubr
          hintmask 00010110
          -85 callsubr
        </CharString>
        <CharString name="egrave">
          -99 2 0 101 4 callgsubr
        </CharString>
        <CharString name="eight">
          -103 -30 155 1158 3 callsubr
          99 274 -274 299 390 293 -262 309 hintmask 11011000
          788 1069 rmoveto
          -135 -55 -89 -105 -42 vhcurveto
          -143 50 -87 89 127 vvcurveto
          132 72 82 122 121 75 -83 -131 vhcurveto
          -205 -443 rmoveto
          147 -51 89 -96 -135 vvcurveto
          -121 -75 -98 -152 vhcurveto
          hintmask 11100100
          -131 -88 85 149 127 59 97 106 60 hvcurveto
          15 -5 15 -7 15 -5 rrcurveto
          hintmask 11101000
          498 452 rmoveto
          230 -222 128 -267 -281 -212 -137 -218 -168 92 -107 166 -84 vhcurveto
          -195 -95 -84 -137 -162 vvcurveto
          -230 225 -128 289 vhcurveto
          hintmask 11100100
          299 237 120 280 178 -147 116 -150 63 hvcurveto
          hintmask 11101000
          148 106 102 98 147 vvcurveto
          endchar
        </CharString>
        <CharString name="ellipsis">
          620 -24 319 hstem
          154 318 352 319 353 318 vstem
          1496 136 rmoveto
          -100 58 -60 100 100 60 60 100 92 -58 67 -102 -97 -61 -61 -98 vhcurveto
          -672 hmoveto
          -100 58 -60 102 100 59 60 100 95 -62 64 -97 -99 -61 -61 -98 vhcurveto
          -670 hmoveto
          -100 59 -60 100 100 59 60 100 95 -61 64 -98 -97 -62 -61 -98 vhcurveto
          endchar
        </CharString>
        <CharString name="emdash">
          475 10 callsubr
          1708 496 rmoveto
          55 6 32 23 52 vvcurveto
          72 -1659 vlineto
          -94 -52 -5 -75 hvcurveto
          -73 1718 vlineto
          endchar
        </CharString>
        <CharString name="endash">
          -304 10 callsubr
          990 496 rmoveto
          47 6 26 25 50 vvcurveto
          72 -927 vlineto
          -94 -52 -5 -75 hvcurveto
          -73 1000 vlineto
          endchar
        </CharString>
        <CharString name="equal">
          37 317 164 219 166 hstem
          1131 317 rmoveto
          59 19 26 23 46 vvcurveto
          76 -955 vlineto
          -102 -28 -7 -79 hvcurveto
          -78 vlineto
          1001 383 rmoveto
          50 16 34 21 51 vvcurveto
          78 -959 vlineto
          -75 -51 -4 -83 hvcurveto
          -79 vlineto
          endchar
        </CharString>
        <CharString name="estimated">
          538 -29 93 -93 312 326 92 545 95 hstemhm
          hintmask 10110000
          hintmask 01110000
          947 64 rmoveto
          -119 -117 57 113 -116 hvcurveto
          375 1196 46 vlineto
          368 -361 318 -484 -402 -442 -260 -426 -411 418 -273 426 292 249 119 193 163 vhcurveto
          hintmask 10110000
          -311 hlineto
          -127 -109 -128 -92 -155 hhcurveto
          -352 637 rmoveto
          375 vlineto
          113 117 117 57 118 hhcurveto
          116 116 -55 -108 116 hvcurveto
          -382 vlineto
          endchar
        </CharString>
        <CharString name="eth">
          -6 -28 134 767 129 572 -20 hstem
          115 328 443 320 vstem
          675 99 rmoveto
          -169 -63 127 266 243 71 131 139 90 79 -49 -131 54 hvcurveto
          5 -45 5 -50 -56 vvcurveto
          -268 -71 -168 -140 vhcurveto
          -388 1309 rmoveto
          108 -16 96 -31 85 -48 -135 -80 rcurveline
          -38 -23 -22 -15 -7 -13 9 -15 12 -13 62 -77 242 142 rcurveline
          70 -60 59 -92 29 -126 rrcurveto
          41 -59 -67 13 -78 hhcurveto
          -283 -255 -168 -337 -330 226 -195 312 374 179 285 359 307 -104 256 -207 166 hvcurveto
          69 37 95 46 24 40 -9 14 -11 13 -57 79 -247 -146 rcurveline
          -101 51 -135 31 -173 13 rrcurveto
          endchar
        </CharString>
        <CharString name="exclam">
          -524 -22 326 1131 -20 hstem
          230 338 vstem
          399 -22 rmoveto
          107 62 71 92 87 -65 76 -104 -103 -66 -73 -90 -92 62 -71 107 hvcurveto
          92 457 rmoveto
          -1 83 12 120 16 179 39 452 rcurveline
          2 23 0 20 16 vvcurveto
          91 -62 16 -99 -81 -58 -18 -38 -42 vhcurveto
          -3 -1 -3 -3 vvcurveto
          1 -31 14 -103 11 -129 16 -206 18 -192 18 -202 rrcurveto
          -73 5 22 -16 92 hhcurveto
          27 29 7 10 22 hvcurveto
          endchar
        </CharString>
        <CharString name="exclamdown">
          -524 -166 -21 165 20 961 326 -176 326 hstemhm
          230 338 -281 204 hintmask 11011000
          399 1435 rmoveto
          -107 -62 -71 -92 -90 66 -73 103 104 65 76 87 92 -62 71 -107 hvcurveto
          hintmask 11100100
          92 -457 rmoveto
          10 -22 -29 7 -27 hhcurveto
          -92 -22 -16 -73 -5 hvcurveto
          -18 -202 -18 -192 -16 -206 -11 -129 -14 -103 -1 -31 rrcurveto
          -3 1 -3 -3 vvcurveto
          -38 42 58 -18 81 hhcurveto
          99 62 16 91 16 0 20 -2 23 hvcurveto
          -39 452 -16 179 -12 120 1 83 rlinecurve
          endchar
        </CharString>
        <CharString name="f">
          -468 9 -21 882 138 202 278 hstem
          263 313 vstem
          121 -12 rmoveto
          8 110 95 4 90 hhcurveto
          56 66 -4 -3 83 hvcurveto
          118 -5 -9 107 rlineto
          -154 19 0 24 131 vvcurveto
          601 140 vlineto
          71 60 6 70 hvcurveto
          62 -271 123 vlineto
          188 46 38 103 vhcurveto
          36 -5 40 -52 27 -90 rrcurveto
          162 224 hlineto
          33 -68 -89 24 -118 hhcurveto
          -240 -212 -113 -291 hvcurveto
          -79 -89 vlineto
          -54 -73 -12 -71 hvcurveto
          -55 216 -648 vlineto
          -96 -3 -16 -135 -15 vhcurveto
          -4 -107 rlineto
          endchar
        </CharString>
        <CharString name="fi">
          171 -5 111 764 126 353 123 hstem
          249 294 431 294 vstem
          971 156 rmoveto
          -142 90 -37 106 95 107 29 10 68 vhcurveto
          -6 101 rlineto
          -86 hlineto
          -58 12 -19 40 56 vvcurveto
          693 vlineto
          24 -4 23 -6 22 vhcurveto
          8 -42 -67 2 -73 -65 -70 -1 -62 hhcurveto
          -82 hlineto
          -82 -85 0 -87 hhcurveto
          88 vlineto
          203 100 62 185 34 32 -3 -4 30 vhcurveto
          27 -19 4 -47 -41 vvcurveto
          -44 52 62 -11 105 hhcurveto
          39 36 15 53 84 vvcurveto
          -64 82 -124 35 -220 2 rrcurveto
          -381 -190 -131 -253 hvcurveto
          -92 -43 vlineto
          -43 -62 2 -16 -43 hvcurveto
          -7 -14 -5 -17 -21 vvcurveto
          -60 -33 callsubr
          -29 callsubr
          343 vlineto
          90 -2 -34 -64 hvcurveto
          -437 vlineto
          -49 -3 -82 -48 vvcurveto
          endchar
        </CharString>
        <CharString name="five">
          -74 -30 155 1098 190 29 -20 hstem
          169 266 376 305 vstem
          437 1253 rmoveto
          -21 132 113 -9 103 hhcurveto
          136 73 16 54 41 hvcurveto
          -8 149 rlineto
          -35 -216 -162 6 -230 hhcurveto
          -103 -96 0 -59 -51 hvcurveto
          -2 -225 -2 -224 -2 -225 79 -15 36 -9 29 -8 rrcurveto
          62 85 83 20 78 hhcurveto
          182 76 -112 -180 -176 -77 -137 -186 -81 -60 20 29 -65 hvcurveto
          -16 81 -14 75 -12 72 -171 16 rcurveline
          5 -334 rlineto
          -61 104 148 -53 194 hhcurveto
          307 229 167 321 258 -185 182 -258 -78 -76 -14 -36 -86 hvcurveto
          4 405 rlineto
          endchar
        </CharString>
        <CharString name="fl">
          203 -4 120 -100 -21 875 126 353 123 hstemhm
          249 294 458 294 hintmask 10111100
          hintmask 01111100
          1012 -4 rmoveto
          hintmask 10111100
          151 152 6 14 154 hvcurveto
          100 vlineto
          hintmask 01111100
          -61 hlineto
          -80 -33 9 95 hvcurveto
          1129 vlineto
          34 -4 28 -6 26 vhcurveto
          41 -91 -230 -6 -144 hhcurveto
          -381 -190 -99 -285 hvcurveto
          -92 -60 vlineto
          -44 -83 5 -46 -16 hvcurveto
          -85 -33 callsubr
          hintmask 10111100
          -29 callsubr
          141 vlineto
          52 40 12 30 14 hvcurveto
          84 -247 88 vlineto
          265 125 0 153 83 51 -11 -17 37 vhcurveto
          12 -29 -3 -53 -38 vvcurveto
          -954 vlineto
          -70 -19 -53 -56 -26 vhcurveto
          -22 -12 22 -47 32 -28 54 -15 rlinecurve
          endchar
        </CharString>
        <CharString name="florin">
          -347 -233 139 -122 -21 913 133 465 140 hstemhm
          hintmask 01110000
          355 676 rmoveto
          -96 -512 rlineto
          hintmask 10110000
          -229 -43 -40 -29 -183 hhcurveto
          -18 -136 rlineto
          -3 40 40 -4 38 hhcurveto
          249 105 81 241 58 hvcurveto
          45 191 32 204 37 196 rrcurveto
          216 hlineto
          24 133 rlineto
          -215 hlineto
          37 210 rlineto
          158 28 38 97 113 hhcurveto
          22 28 -4 -8 35 hvcurveto
          24 129 rlineto
          17 -51 -50 8 -41 hhcurveto
          -215 -133 -87 -210 -40 hvcurveto
          -59 -310 rlineto
          -196 hlineto
          -24 -133 rlineto
          endchar
        </CharString>
        <CharString name="four">
          -66 0 141 -135 -21 383 148 897 -20 hstemhm
          644 298 hintmask 10111000
          250 566 rmoveto
          394 566 rlineto
          -69 vlineto
          -547 -425 vlineto
          855 -148 rmoveto
          91 45 3 75 hvcurveto
          70 -268 810 vlineto
          74 -37 13 -78 vhcurveto
          -51 hlineto
          -84 -22 0 -24 hhcurveto
          -104 -140 -161 -231 -294 -424 -21 -30 -19 -26 -16 -30 rrcurveto
          -54 21 -51 43 -59 vhcurveto
          549 -115 hlineto
          -47 -4 -36 -7 -24 -10 callsubr
          hintmask 01111000
          -105 hlineto
          hintmask 10111000
          -156 vlineto
          hintmask 01111000
          9 138 118 6 108 hhcurveto
          hintmask 10111000
          100 109 -4 -11 125 hvcurveto
          156 -107 vlineto
          -30 -27 1 4 -27 hvcurveto
          -7 28 -2 33 47 vvcurveto
          114 vlineto
          endchar
        </CharString>
        <CharString name="fraction">
          -1060 -56 -21 1565 -20 hstem
          -321 58 rmoveto
          1 1 0 1 vhcurveto
          -26 -41 -19 -32 -11 -24 rrcurveto
          -26 14 39 -13 66 hhcurveto
          106 hlineto
          374 740 129 255 114 227 101 200 rlinecurve
          20 40 26 51 11 15 rrcurveto
          24 -15 -40 13 -66 hhcurveto
          -103 hlineto
          endchar
        </CharString>
        <CharString name="g">
          -175 -451 138 316 171 132 127 470 126 hstemhm
          60 250 -210 280 -220 181 -181 220 334 275 -157 249 hintmask 1111000110000000
          714 657 rmoveto
          -156 -67 -68 -102 -98 -67 67 157 165 50 81 116 108 60 -84 -162 vhcurveto
          118 -813 rmoveto
          -93 -67 -64 -221 -181 -53 72 85 52 62 79 24 24 vhcurveto
          29 86 4 72 hhcurveto
          hintmask 1111100001000000
          203 46 -47 -112 hvcurveto
          -57 1145 rmoveto
          24 -65 -77 16 -81 hhcurveto
          hintmask 1111001010000000
          -270 -182 -129 -235 -137 60 -107 115 -57 hvcurveto
          hintmask 1111100001000000
          -77 -33 -38 -68 -90 vvcurveto
          -66 37 -61 66 -21 vhcurveto
          -139 -42 -64 -70 -97 vvcurveto
          -159 137 -108 318 vhcurveto
          hintmask 1111001010000000
          350 216 95 244 283 -288 3 -289 -139 -24 14 50 39 16 35 5 8 hvcurveto
          -5 28 71 -9 58 hhcurveto
          hintmask 1111010010000000
          325 145 140 214 75 -27 61 -58 72 hvcurveto
          71 71 1 70 hhcurveto
          83 0 40 -37 24 vhcurveto
          endchar
        </CharString>
        <CharString name="germandbls">
          73 -22 131 1265 117 hstemhm
          193 312 127 233 76 271 -125 272 hintmask 11111000
          505 997 rmoveto
          235 73 142 161 vhcurveto
          hintmask 11110100
          118 84 -68 -136 -53 -19 -46 -34 -37 hvcurveto
          -173 -30 -83 -68 -156 vvcurveto
          -127 59 -71 112 -68 vhcurveto
          170 -103 114 -36 -107 vvcurveto
          -89 -55 -70 -94 -85 -51 47 91 -29 vhcurveto
          -111 39 -26 -125 -8 -36 -9 -45 -3 -34 rlinecurve
          -33 76 142 -35 109 hhcurveto
          hintmask 11111000
          198 218 94 241 184 -133 70 -179 65 hvcurveto
          -103 38 -79 40 99 vvcurveto
          70 57 49 103 33 38 -6 -10 35 vhcurveto
          58 62 23 43 88 vvcurveto
          255 -181 131 -312 -298 -222 -168 -335 -6 vhcurveto
          -18 -19 1 -19 hhcurveto
          -58 -17 -19 -66 hvcurveto
          66 hlineto
          27 26 0 1 12 hvcurveto
          -615 vlineto
          -59 0 -54 -10 -37 vhcurveto
          -8 -31 -36 -5 -38 hhcurveto
          -61 hlineto
          -5 -129 rlineto
          -5 141 134 -2 129 hhcurveto
          38 45 8 37 10 hvcurveto
          75 -4 72 85 vvcurveto
          729 vlineto
          endchar
        </CharString>
        <CharString name="grave">
          -107 1191 0 callgsubr
          hintmask 10000000
          hintmask 01000000
          658 1191 rmoveto
          hintmask 10000000
          -32 callsubr
          294 -346 rlineto
          endchar
        </CharString>
        <CharString name="greater">
          133 25 -21 1080 -20 hstem
          134 165 rmoveto
          16 -65 4 -16 38 -32 71 -48 rlinecurve
          80 25 48 16 15 7 rrcurveto
          -3 hlineto
          969 442 rlineto
          54 vlineto
          8 -6 15 -5 8 vhcurveto
          -19 31 -1038 474 -45 -27 -31 -18 -16 -9 rlinecurve
          -29 -7 -22 -23 -17 -37 -11 -39 rcurveline
          828 -378 rlineto
          377 71 rmoveto
          1 -4 2 -2 1 -1 rrcurveto
          endchar
        </CharString>
        <CharString name="greaterequal">
          -141 1 163 1079 -20 hstem
          1057 164 rmoveto
          -932 -163 932 hlineto
          -923 1066 rmoveto
          239 -105 243 -110 239 -107 -720 -326 rcurveline
          -182 vlineto
          922 433 rlineto
          147 vlineto
          -923 432 rlineto
          endchar
        </CharString>
        <CharString name="guillemotleft">
          -248 105 -21 926 -20 hstem
          449 84 rmoveto
          40 22 5 45 57 hvcurveto
          -68 125 -73 135 -80 150 97 169 83 148 55 100 -37 17 -40 21 -40 11 -13 -15 -13 -14 -14 -19 -272 -364 rcurveline
          -11 -33 -5 -33 -4 -31 rrcurveto
          662 -400 rmoveto
          42 26 7 43 51 hvcurveto
          -206 393 92 163 78 142 51 95 rlinecurve
          -39 18 -41 19 -39 11 -12 -15 -14 -14 -13 -18 -258 -347 rcurveline
          -10 -32 -7 -32 -2 -33 rrcurveto
          endchar
        </CharString>
        <CharString name="guillemotright">
          -248 99 -21 932 -20 hstem
          928 501 rmoveto
          -2 45 -2 29 -36 49 -249 338 rcurveline
          -13 18 -13 15 -12 15 -40 -12 -37 -19 -39 -18 52 -99 76 -138 102 -180 -82 -150 -76 -135 -69 -125 43 -32 31 -16 37 -8 116 135 104 147 109 141 rrcurveto
          -360 hmoveto
          -3 45 -2 30 -33 45 -238 327 rcurveline
          -13 17 -12 13 -12 14 -42 -12 -44 -21 -29 -15 47 -94 70 -131 97 -175 -213 -393 rcurveline
          36 -24 41 -25 35 -7 110 131 98 141 107 134 rrcurveto
          endchar
        </CharString>
        <CharString name="guilsinglleft">
          -610 93 -21 944 -20 hstem
          133 475 rmoveto
          332 -403 37 14 29 16 22 19 rlinecurve
          -28 64 -33 76 -136 281 155 301 43 88 14 41 -19 13 -32 14 -45 17 -339 -435 rcurveline
          endchar
        </CharString>
        <CharString name="guilsinglright">
          -609 93 -21 944 -20 hstem
          569 492 rmoveto
          35 1 35 35 vvcurveto
          -337 419 -44 -16 -30 -14 -18 -14 rlinecurve
          12 -37 35 -78 157 -312 -142 -286 -35 -74 -26 -64 24 -20 30 -17 37 -12 336 420 rcurveline
          endchar
        </CharString>
        <CharString name="h">
          107 0 123 -119 -21 897 154 460 -20 hstemhm
          218 313 356 312 hintmask 10111100
          1212 123 rmoveto
          -7 32 -6 44 60 vvcurveto
          438 vlineto
          219 -91 118 -207 -135 -136 -51 -82 -99 vhcurveto
          489 vlineto
          88 -10 16 -99 -146 -133 -11 -26 -107 vhcurveto
          -100 91 vlineto
          32 28 -3 -4 25 hvcurveto
          5 -22 1 -26 -29 vvcurveto
          -1031 vlineto
          -112 -7 -18 -111 -15 vhcurveto
          -5 -109 rlineto
          hintmask 01111100
          8 92 86 4 87 hhcurveto
          53 79 -4 -6 116 hvcurveto
          39 -2 -9 110 rlineto
          -107 19 0 27 118 vvcurveto
          481 vlineto
          70 34 98 67 98 hhcurveto
          126 0 -171 -200 hvcurveto
          -22 vlineto
          -144 -6 -161 -103 vvcurveto
          hintmask 10111100
          -72 71 -24 103 104 109 11 23 94 vhcurveto
          -6 106 rlineto
          endchar
        </CharString>
        <CharString name="hbar">
          107 -11 608 104 45 endchar
        </CharString>
        <CharString name="hungarumlaut">
          -14 1192 345 hstem
          1104 1511 -25 callsubr
          61 hhcurveto
          -109 319 -25 callsubr
          60 hhcurveto
          endchar
        </CharString>
        <CharString name="hyphen">
          -545 10 callsubr
          653 496 rmoveto
          41 6 20 33 51 vvcurveto
          63 -569 vlineto
          -64 -30 -9 -64 hvcurveto
          -80 602 vlineto
          endchar
        </CharString>
        <CharString name="i">
          -582 9 -21 1201 -8 callsubr
          hintmask 11010000
          -77 callgsubr
          hintmask 11100000
          -101 -84 -51 -96 hvcurveto
          endchar
        </CharString>
        <CharString name="iacute">
          -30 callgsubr
          187 345 -74 callgsubr
          60 393 -68 callgsubr
        </CharString>
        <CharString name="icircumflex">
          -623 -258 0 245 -4 callsubr
        </CharString>
        <CharString name="idieresis">
          -30 callgsubr
          95 312 hstemhm
          58 330 -165 311 19 330 hintmask 11001000
          -99 callgsubr
          38 458 -66 callsubr
          hintmask 00110100
          -85 callsubr
        </CharString>
        <CharString name="igrave">
          -623 -259 0 245 4 callgsubr
        </CharString>
        <CharString name="ij">
          315 -412 143 278 -21 1201 293 -278 -8 callsubr
          540 370 -340 311 hintmask 01100100
          -77 callgsubr
          hintmask 01101000
          -101 -84 -51 -96 hvcurveto
          883 14 -11 callgsubr
          vhcurveto
          hintmask 10010010
          -101 -84 -51 -97 hvcurveto
          342 -381 -97 callgsubr
          hintmask 10010001
          -59 callsubr
          endchar
        </CharString>
        <CharString name="infinity">
          171 242 135 393 133 hstem
          72 143 1074 140 vstem
          1111 770 rmoveto
          107 71 -78 -123 -96 -65 -96 -107 -106 -85 94 104 -90 hvcurveto
          74 58 113 121 104 hhcurveto
          -709 -393 rmoveto
          -111 -76 83 108 114 65 88 111 130 64 -105 -98 89 hvcurveto
          -107 -95 -76 -83 -101 hhcurveto
          1027 201 rmoveto
          188 -126 137 -180 -161 -101 -108 -114 -100 vhcurveto
          126 -107 -100 96 -152 hhcurveto
          -188 -142 -138 -196 -184 139 -143 176 171 103 112 109 94 hvcurveto
          -154 131 105 -67 120 hhcurveto
          171 147 133 203 hvcurveto
          endchar
        </CharString>
        <CharString name="integral">
          -348 -394 110 -110 202 1557 195 -108 108 hstemhm
          235 205 -164 205 hintmask 10100100
          276 -55 rmoveto
          hintmask 10101000
          -145 -21 -84 -43 vhcurveto
          -31 -18 92 -47 hhcurveto
          -55 -40 -40 -51 -64 67 -47 98 hvcurveto
          hintmask 10011000
          191 104 221 466 hvcurveto
          411 -41 216 291 vvcurveto
          hintmask 01100100
          157 23 84 43 vhcurveto
          28 15 -87 58 hhcurveto
          54 41 33 62 61 -85 39 -70 hvcurveto
          hintmask 10100100
          -198 -114 -198 -439 hvcurveto
          -199 41 -577 -202 vvcurveto
          endchar
        </CharString>
        <CharString name="itilde">
          -30 callgsubr
          246 -13 callgsubr
          2 callgsubr
          hintmask 11001000
          -99 callgsubr
          172 652 -71 callsubr
        </CharString>
        <CharString name="j">
          -413 -412 143 1473 293 -19 callsubr
          hintmask 11100000
          343 1349 -11 callgsubr
          -101 -84 -51 -97 vhcurveto
          342 -381 -97 callgsubr
          hintmask 11010000
          -59 callsubr
          endchar
        </CharString>
        <CharString name="jcircumflex">
          -16 callgsubr
          -269 12 callsubr
          -19 callsubr
          hintmask 11100100
          685 968 -97 callgsubr
          hintmask 11100010
          -59 callsubr
          107 260 -87 callgsubr
          hintmask 00011000
          30 17 7 14 4 hvcurveto
          endchar
        </CharString>
        <CharString name="k">
          34 8 -38 callgsubr
          hintmask 11110000
          -79 callgsubr
          hintmask 11101000
          -64 callgsubr
          -4 -107 rlineto
          endchar
        </CharString>
        <CharString name="kcommaaccent">
          34 -14 callsubr
          120 -38 callgsubr
          hintmask 00111100
          -79 callgsubr
          hintmask 00111010
          -64 callgsubr
          462 -833 -88 callsubr
        </CharString>
        <CharString name="kgreenlandic">
          34 8 -38 callgsubr
          hintmask 11110000
          -62 callgsubr
          66 -95 67 -88 callgsubr
          hintmask 11101000
          -46 callsubr
          297 vlineto
          90 -4 63 -79 -160 -139 -13 -27 -113 vhcurveto
          -36 callgsubr
          -570 vlineto
          -105 -15 -8 -103 -15 vhcurveto
          -4 -107 rlineto
          endchar
        </CharString>
        <CharString name="l">
          -583 -11 133 1372 -20 hstem
          214 310 vstem
          -73 callgsubr
          endchar
        </CharString>
        <CharString name="ldot">
          -370 -11 133 589 323 460 -20 hstemhm
          214 310 118 335 hintmask 10110000
          -73 callgsubr
          604 513 -17 callgsubr
          hvcurveto
          hintmask 01001000
          -93 59 -68 114 vhcurveto
          endchar
        </CharString>
        <CharString name="less">
          134 34 -21 1089 -20 hstem
          160 626 rmoveto
          -15 -9 -2 -13 -12 -5 0 -4 -4 vvcurveto
          10 4 10 3 11 4 rrcurveto
          -28 -12 -13 -9 -7 vvcurveto
          -59 vlineto
          395 -182 320 -144 248 -113 37 -17 42 -18 47 -16 84 66 -17 6 21 77 -142 62 -164 76 -187 86 -375 171 rcurveline
          1 0 0 1 vvcurveto
          869 397 -21 74 13 9 -80 63 rlinecurve
          -31 -11 -34 -13 -39 -16 -106 -45 rcurveline
          -853 -391 rlineto
          endchar
        </CharString>
        <CharString name="lessequal">
          -137 1 163 1079 -20 hstem
          1060 164 rmoveto
          -935 -163 935 hlineto
          -7 418 rmoveto
          -239 107 -243 111 -239 107 721 323 rcurveline
          182 vlineto
          -917 -432 rlineto
          -147 vlineto
          917 -433 rlineto
          endchar
        </CharString>
        <CharString name="logicalnot">
          -13 264 -21 416 160 hstem
          966 198 vstem
          966 304 rmoveto
          -46 5 35 -15 63 hhcurveto
          95 576 -923 hlineto
          -76 -32 -3 -84 hvcurveto
          -73 833 -355 vlineto
          endchar
        </CharString>
        <CharString name="lozenge">
          -206 -52 -21 1517 -20 hstem
          540 86 rmoveto
          -310 607 310 592 101 -198 97 -197 102 -200 rlinecurve
          -225 754 rmoveto
          -156 hlineto
          -409 -754 408 -763 rlineto
          157 hlineto
          407 763 rlineto
          endchar
        </CharString>
        <CharString name="lslash">
          -583 -11 133 -129 126 1261 132 -18 -20 hstemhm
          214 310 -306 296 hintmask 01100100
          39 524 rmoveto
          21 12 592 377 31 20 rrcurveto
          186 vlineto
          -644 -411 rlineto
          172 -510 -85 callgsubr
          hintmask 10011000
          -47 -1 -45 -2 -42 vhcurveto
          endchar
        </CharString>
        <CharString name="m">
          744 -17 109 790 153 hstem
          231 312 335 312 326 319 vstem
          1523 278 rmoveto
          -64 -7 -83 -52 vvcurveto
          -72 71 -24 103 109 103 11 23 96 vhcurveto
          -11 106 rlineto
          -139 hlineto
          -7 32 -6 44 60 vvcurveto
          459 vlineto
          209 -97 108 -197 -157 -118 -72 -75 -95 vhcurveto
          96 -41 -85 49 -124 hhcurveto
          -145 -129 -55 -90 -113 hvcurveto
          25 1 14 13 22 -2 22 22 vvcurveto
          13 -70 -42 4 -44 hhcurveto
          -117 -142 -14 -18 -69 hvcurveto
          -109 78 vlineto
          36 34 -2 -6 30 hvcurveto
          3 -24 1 -27 -26 vvcurveto
          -573 vlineto
          -92 -6 -32 -115 -8 vhcurveto
          -104 vlineto
          6 71 76 6 78 hhcurveto
          95 100 -4 -8 112 hvcurveto
          -4 110 rlineto
          -93 17 -2 30 103 vvcurveto
          491 vlineto
          72 36 102 60 104 hhcurveto
          74 19 -43 -195 hvcurveto
          -412 vlineto
          -90 -1 -17 -98 -16 vhcurveto
          -110 vlineto
          8 72 80 4 89 hhcurveto
          75 116 -4 -8 108 hvcurveto
          -5 104 rlineto
          -112 17 -12 20 96 vvcurveto
          515 vlineto
          67 41 82 65 109 hhcurveto
          80 21 -46 -193 hvcurveto
          -355 vlineto
          endchar
        </CharString>
        <CharString name="minus">
          -80 468 166 hstem
          1117 468 rmoveto
          60 19 24 24 44 vvcurveto
          79 -926 vlineto
          -99 -30 -10 -78 hvcurveto
          -78 971 vlineto
          endchar
        </CharString>
        <CharString name="mu">
          252 -11 133 903 -20 hstem
          338 312 361 312 vstem
          1011 483 rmoveto
          -2 -96 1 -101 -10 -71 rrcurveto
          -22 -17 -118 -72 -94 hhcurveto
          -104 -17 71 89 hvcurveto
          118 -1 118 119 vvcurveto
          311 vlineto
          28 -8 32 -31 7 vhcurveto
          8 -33 -42 3 -46 hhcurveto
          -111 -106 -13 -22 -101 hvcurveto
          6 -105 rlineto
          89 hlineto
          24 22 -2 -4 20 hvcurveto
          4 -24 2 -26 -31 vvcurveto
          -993 vlineto
          -50 2 -39 10 -40 vhcurveto
          -74 18 92 -9 81 hhcurveto
          85 70 16 38 64 hvcurveto
          26 vlineto
          8 -1 18 -1 26 vhcurveto
          -126 29 -12 69 167 vvcurveto
          -8 24 23 -3 22 hhcurveto
          112 106 64 69 96 hvcurveto
          -113 4 45 -10 124 hhcurveto
          108 105 12 24 103 hvcurveto
          97 -61 vlineto
          -33 -30 0 2 -29 hvcurveto
          -14 37 -2 55 92 vvcurveto
          639 vlineto
          30 -9 30 -32 8 vhcurveto
          5 -40 -42 3 -44 hhcurveto
          -103 -103 -11 -22 -100 hvcurveto
          5 -105 rlineto
          86 hlineto
          23 22 -2 -4 19 hvcurveto
          4 -24 2 -27 -30 vvcurveto
          -315 vlineto
          endchar
        </CharString>
        <CharString name="multiply">
          -19 183 -21 969 -20 hstem
          162 992 rmoveto
          346 -347 -340 -349 131 -134 346 346 346 -339 137 128 -347 348 341 348 -130 138 -347 -349 -332 334 rlineto
          endchar
        </CharString>
        <CharString name="n">
          8 callsubr
          hstem
          8 callgsubr
          vstem
          1219 706 -98 callgsubr
          447 vlineto
          endchar
        </CharString>
        <CharString name="nacute">
          8 callsubr
          170 345 hstemhm
          8 callgsubr
          hintmask 11011000
          1219 706 -98 callgsubr
          -561 933 -68 callgsubr
        </CharString>
        <CharString name="nine">
          -54 -30 155 408 159 590 154 hstem
          89 308 433 317 vstem
          835 650 rmoveto
          -3 -49 -1 -40 -5 -37 rrcurveto
          -226 -10 -86 -173 -177 hhcurveto
          -50 -57 12 23 -64 hvcurveto
          -38 239 rlineto
          -177 -336 hlineto
          -61 71 164 -32 160 hhcurveto
          400 185 283 528 443 -175 212 -357 -317 -209 -189 -270 -270 167 -174 251 115 106 40 77 107 hvcurveto
          -5 244 rmoveto
          -2 -35 -18 -50 -31 -34 rrcurveto
          -60 -32 -126 -23 -56 hhcurveto
          -118 -50 122 166 195 84 107 123 156 70 -136 -252 hvcurveto
          endchar
        </CharString>
        <CharString name="notequal">
          -109 81 -21 221 163 214 162 219 -20 hstem
          1063 281 rmoveto
          38 12 16 26 49 vvcurveto
          76 -448 vlineto
          92 214 rlineto
          302 hlineto
          38 13 16 23 51 vvcurveto
          75 -286 vlineto
          22 52 30 79 20 51 rrcurveto
          24 -15 -31 13 -46 hhcurveto
          -74 hlineto
          -94 -219 rlineto
          -403 hlineto
          -75 -34 -3 -81 hvcurveto
          -78 443 vlineto
          -91 -214 rlineto
          -263 hlineto
          -76 -13 -14 -72 hvcurveto
          -77 283 vlineto
          -26 -60 -26 -64 -22 -58 rrcurveto
          -26 14 30 -13 47 hhcurveto
          75 hlineto
          95 221 rlineto
          462 hlineto
          endchar
        </CharString>
        <CharString name="ntilde">
          96 1206 -13 callgsubr
          hintmask 10000000
          726 1406 -67 callgsubr
          517 -700 -98 callgsubr
          endchar
        </CharString>
        <CharString name="numbersign">
          -94 94 -21 369 143 256 144 363 -20 hstem
          763 841 rmoveto
          -54 -256 rlineto
          -255 hlineto
          54 256 rlineto
          515 -399 rmoveto
          36 7 14 16 45 vvcurveto
          75 -211 vlineto
          55 256 rlineto
          150 hlineto
          76 2 27 62 hvcurveto
          55 -200 vlineto
          54 250 6 33 2 23 2 16 rlinecurve
          37 -32 4 -53 vhcurveto
          -56 hlineto
          -77 -363 rlineto
          -252 hlineto
          53 253 5 26 3 24 4 18 rlinecurve
          35 -6 -29 7 -52 hhcurveto
          -58 hlineto
          -76 -363 rlineto
          -161 hlineto
          -57 -21 -8 -60 hvcurveto
          -76 209 vlineto
          -53 -256 rlineto
          -152 hlineto
          -70 -8 -22 -65 hvcurveto
          -56 203 vlineto
          -46 -215 rlineto
          -11 -60 -9 -42 -18 vvcurveto
          -30 31 -4 44 vhcurveto
          67 hlineto
          76 369 rlineto
          255 hlineto
          -39 -194 -10 -49 -12 -52 -3 -29 rlinecurve
          -36 6 27 -9 52 hhcurveto
          57 hlineto
          76 369 rlineto
          endchar
        </CharString>
        <CharString name="o">
          20 -40 callsubr
          hstem
          105 -38 callsubr
          vstem
          -70 callsubr
          endchar
        </CharString>
        <CharString name="oacute">
          -34 -40 callsubr
          164 345 hstemhm
          84 -38 callsubr
          hintmask 00100000
          662 -57 callgsubr
          -67 -694 -89 callgsubr
          vhcurveto
          hintmask 11011000
          -92 callgsubr
        </CharString>
        <CharString name="ocircumflex">
          -34 -40 callsubr
          184 12 callsubr
          hstemhm
          89 -38 callsubr
          hintmask 00110000
          993 1219 -80 callsubr
          -577 -714 -89 callsubr
        </CharString>
        <CharString name="odieresis">
          20 126 0 111 14 callsubr
        </CharString>
        <CharString name="oe">
          573 -28 156 337 132 303 138 hstem
          105 327 431 265 364 300 vstem
          1128 597 rmoveto
          201 14 63 106 119 hhcurveto
          109 59 -126 -147 -12 0 -11 -1 -11 hvcurveto
          -628 -93 rmoveto
          -267 -68 -128 -147 -141 -75 125 270 273 73 123 142 141 75 -123 -273 vhcurveto
          853 -280 rmoveto
          -66 -88 -91 -30 -88 hhcurveto
          -187 -113 122 216 -20 hvcurveto
          158 158 -1 159 hhcurveto
          131 57 24 149 251 -186 149 -249 -154 -120 -61 -94 -87 hvcurveto
          103 -85 -118 52 -154 hhcurveto
          -297 -237 -191 -343 -329 215 -203 317 159 116 54 90 85 hvcurveto
          -100 94 119 -44 143 hhcurveto
          184 139 50 110 92 hvcurveto
          endchar
        </CharString>
        <CharString name="ogonek">
          -258 -396 -21 477 -20 hstem
          332 267 vstem
          634 60 rmoveto
          -153 -80 -149 -121 -114 vvcurveto
          -112 86 -50 151 95 85 25 52 70 vhcurveto
          -2 24 -18 31 -31 37 -35 -13 -43 -17 -49 -8 rrcurveto
          -18 3 -24 22 55 vvcurveto
          69 49 77 93 76 vhcurveto
          -107 44 rlineto
          endchar
        </CharString>
        <CharString name="ograve">
          -34 -40 callsubr
          163 0 callgsubr
          82 -38 callsubr
          hintmask 00100000
          hintmask 00010000
          636 1198 rmoveto
          hintmask 00100000
          -32 callsubr
          67 -1039 -89 callsubr
        </CharString>
        <CharString name="one">
          -317 0 142 -136 -21 hstemhm
          343 314 hintmask 10100000
          657 1364 rmoveto
          53 -7 -44 12 -65 hhcurveto
          -126 -156 -40 -39 -138 hvcurveto
          9 -104 104 9 rlineto
          2 11 10 1 9 hhcurveto
          32 23 -5 -10 22 hvcurveto
          2 -33 0 -36 -37 vvcurveto
          -883 vlineto
          -48 -5 -35 -6 -24 -10 callsubr
          hintmask 01100000
          -105 hlineto
          hintmask 10100000
          -157 vlineto
          hintmask 01100000
          9 133 119 6 114 -4 callgsubr
          104 114 -4 -11 130 hvcurveto
          157 -107 vlineto
          -30 -28 1 4 -26 hvcurveto
          -6 28 -3 33 47 vvcurveto
          1109 vlineto
          endchar
        </CharString>
        <CharString name="onehalf">
          601 0 124 429 87 162 89 hstem
          219 195 1179 188 vstem
          1475 802 rmoveto
          79 39 -52 -92 -39 -8 -39 -15 -34 hvcurveto
          -35 -20 callgsubr
          -41 4 17 -13 48 hhcurveto
          351 hlineto
          120 63 2 11 48 hvcurveto
          6 73 2 78 80 vvcurveto
          -22 2 -26 5 -26 2 rrcurveto
          -97 -43 -53 -32 -73 hhcurveto
          -216 hlineto
          278 220 154 135 164 vvcurveto
          161 -112 87 -195 -26 callsubr
          -1061 587 -73 callsubr
          712 709 rmoveto
          -212 -423 -209 -420 -211 -422 -29 -57 -26 -52 -23 -52 rrcurveto
          -4 25 30 -4 31 hhcurveto
          41 41 7 18 47 hvcurveto
          693 1440 rlineto
          -33 callgsubr
        </CharString>
        <CharString name="onequarter">
          574 -10 -21 37 93 146 97 211 87 hstem
          219 195 1015 192 vstem
          1182 342 rmoveto
          97 147 74 111 76 110 rrcurveto
          -368 vlineto
          253 -97 rmoveto
          14 14 -1 13 hhcurveto
          42 31 6 50 hvcurveto
          42 -175 526 vlineto
          57 -36 0 -62 vhcurveto
          -100 hlineto
          -70 -94 -103 -150 -187 -268 -13 -19 -13 -19 -11 -19 rrcurveto
          -54 24 -32 19 -25 vhcurveto
          360 -2 callsubr
          -19 0 -20 hhcurveto
          -75 -103 hlineto
          7 96 77 3 67 hhcurveto
          62 71 -3 -7 86 hvcurveto
          103 -70 vlineto
          -19 -18 1 2 -16 hvcurveto
          -5 16 -2 23 31 vvcurveto
          73 vlineto
          -1207 1144 -73 callsubr
          714 709 rmoveto
          -237 -477 -237 -471 -235 -478 rrcurveto
          -5 17 24 -2 29 hhcurveto
          58 hlineto
          19 15 2 6 14 hvcurveto
          26 39 25 44 23 46 601 1211 rcurveline
          20 40 18 38 18 38 rrcurveto
          -33 callgsubr
        </CharString>
        <CharString name="onesuperior">
          -599 553 87 -75 -21 hstemhm
          152 317 hintmask 10100000
          469 1389 rmoveto
          29 -4 -10 11 -59 hhcurveto
          -75 -94 -24 -24 -88 hvcurveto
          5 -64 65 6 rlineto
          6 6 1 6 hhcurveto
          19 14 -3 -6 14 hvcurveto
          1 -12 0 -12 -13 vvcurveto
          hintmask 01100000
          -570 vlineto
          -31 -3 -20 -4 -16 callsubr
          hintmask 10100000
          -82 hlineto
          hintmask 01100000
          -96 vlineto
          hintmask 10100000
          -24 callgsubr
          79 hvcurveto
          96 -67 vlineto
          -18 -16 0 3 -16 hvcurveto
          -4 13 -2 15 22 vvcurveto
          696 vlineto
          endchar
        </CharString>
        <CharString name="ordfeminine">
          -433 730 106 232 80 -80 380 hstemhm
          66 221 219 223 hintmask 11011000
          500 887 rmoveto
          -31 -42 -44 -20 -39 hhcurveto
          -55 -33 38 64 89 61 41 112 hvcurveto
          46 hlineto
          -63 -2 -57 -4 -61 vhcurveto
          339 -55 rmoveto
          -41 -34 1 5 -32 hvcurveto
          -4 24 0 37 53 vvcurveto
          98 vlineto
          47 1 44 40 vvcurveto
          hintmask 10111000
          176 -97 91 -234 -177 -136 -76 -74 vhcurveto
          33 -22 44 -28 57 -34 rrcurveto
          84 63 62 59 82 hhcurveto
          50 30 -16 -152 hvcurveto
          -41 -56 vlineto
          -262 -122 -73 -144 -133 96 -68 142 89 67 36 58 59 hvcurveto
          13 -13 14 -36 17 -16 rrcurveto
          -12 22 30 -5 40 hhcurveto
          66 62 8 14 56 hvcurveto
          endchar
        </CharString>
        <CharString name="ordmasculine">
          -382 730 99 520 100 hstem
          72 243 298 243 vstem
          465 1349 rmoveto
          110 38 -100 -160 -158 -37 -102 -111 -111 -39 100 159 162 37 99 113 hvcurveto
          391 -262 rmoveto
          225 -166 137 -225 -224 -169 -133 -229 -223 164 -134 229 210 181 120 237 vhcurveto
          endchar
        </CharString>
        <CharString name="oslash">
          20 -25 140 -138 139 777 142 -135 138 116 -20 hstemhm
          105 -38 callsubr
          hintmask 10011110
          353 -62 rmoveto
          -10 -22 -14 -20 -8 -22 rrcurveto
          -9 22 25 -5 24 hhcurveto
          18 18 3 5 16 hvcurveto
          577 1213 9 19 12 18 8 18 rlinecurve
          -25 16 -45 0 -42 2 -12 -13 -8 -15 -8 -17 rrcurveto
          -478 -604 -89 callgsubr
          vhcurveto
          hintmask 01100110
          -92 callgsubr
        </CharString>
        <CharString name="otilde">
          -34 -40 callsubr
          170 -13 callgsubr
          96 -38 callsubr
          hintmask 00100000
          701 1405 -84 callsubr
          -33 -36 25 20 -40 hvcurveto
          -278 -900 -89 callsubr
        </CharString>
        <CharString name="p">
          65 4 callsubr
          147 hstem
          210 317 418 325 vstem
          511 1007 rmoveto
          14 -67 -38 2 -45 hhcurveto
          -121 -143 -15 -17 -70 hvcurveto
          -109 92 vlineto
          32 29 -2 -6 27 hvcurveto
          3 -28 0 -30 -30 vvcurveto
          -982 vlineto
          -51 callsubr
          22 1 24 248 vvcurveto
          -56 76 89 -31 107 hhcurveto
          273 203 190 352 321 -165 195 -278 -123 -108 -42 -76 -83 hvcurveto
          -2 5 0 72 13 vvcurveto
          16 -220 rmoveto
          75 81 90 26 78 hhcurveto
          117 52 -129 -254 -196 -52 -186 -165 -86 -59 44 85 -44 hvcurveto
          -12 72 -2 99 105 vvcurveto
          86 1 90 1 83 vhcurveto
          endchar
        </CharString>
        <CharString name="paragraph">
          -103 -181 -21 1474 115 hstemhm
          480 140 154 140 -140 348 hintmask 11110000
          655 1387 rmoveto
          -350 -223 -85 -298 -258 125 -151 273 hvcurveto
          -531 vlineto
          -51 -5 -40 -11 -30 vhcurveto
          -8 -24 -35 -1 -44 hhcurveto
          -89 -136 hlineto
          12 118 123 7 107 hhcurveto
          1494 154 -1494 vlineto
          107 123 -7 -12 118 hvcurveto
          hintmask 11101000
          136 -89 vlineto
          -45 -34 1 8 -24 hvcurveto
          -11 30 -5 40 51 vvcurveto
          1077 vlineto
          52 4 38 11 30 vhcurveto
          9 24 35 2 44 hhcurveto
          92 100 hlineto
          13 -71 -112 2 -144 hhcurveto
          -142 hlineto
          endchar
        </CharString>
        <CharString name="parenleft">
          -635 1511 -20 hstem
          117 288 vstem
          117 656 rmoveto
          -321 117 -409 228 -112 vhcurveto
          23 14 2 3 4 hvcurveto
          -4 -4 -1 -1 -5 hvcurveto
          -6 12 13 -3 13 hhcurveto
          24 26 10 16 31 hvcurveto
          -138 227 -66 286 309 vvcurveto
          307 66 285 138 226 vhcurveto
          -61 26 rlineto
          1 1 0 1 2 vvcurveto
          4 -8 -17 3 -24 hhcurveto
          -53 -29 -18 -18 -30 hvcurveto
          -165 -213 -106 -302 -304 vvcurveto
          endchar
        </CharString>
        <CharString name="parenright">
          -635 263 295 vstem
          558 662 rmoveto
          156 -27 156 -53 149 vhcurveto
          0 1 0 0 vhcurveto
          -44 125 -73 127 -80 92 rrcurveto
          29 -29 -20 13 -39 hhcurveto
          -26 -27 -2 -6 -14 hvcurveto
          -61 -27 rlineto
          135 -220 67 -283 -313 vvcurveto
          -310 -70 -295 -132 -219 vhcurveto
          71 -31 rlineto
          -1 -1 -1 0 -1 hhcurveto
          -1 -1 0 1 -2 hvcurveto
          -3 6 11 -1 15 hhcurveto
          28 36 3 20 31 hvcurveto
          166 141 135 349 350 vvcurveto
          endchar
        </CharString>
        <CharString name="partialdiff">
          -195 -29 89 698 105 422 231 -116 116 hstemhm
          82 280 451 252 hintmask 11011100
          576 863 rmoveto
          -308 -186 -237 -246 -254 169 -155 254 391 169 430 375 332 -164 408 -404 -132 -112 -39 -60 -95 hvcurveto
          -3 -5 -1 -7 -7 vvcurveto
          hintmask 11101100
          -57 87 -56 62 vhcurveto
          70 88 84 45 77 hhcurveto
          212 49 -309 -158 -55 -5 -54 -4 -49 hvcurveto
          62 -61 -89 26 -78 hhcurveto
          44 -105 rmoveto
          68 62 -69 -58 31 hvcurveto
          -144 -30 -50 -427 -196 hhcurveto
          -91 -52 118 152 153 46 275 212 hvcurveto
          endchar
        </CharString>
        <CharString name="percent">
          353 -25 104 -92 -21 664 102 -52 102 551 102 15 -20 hstemhm
          81 173 286 175 229 178 285 175 hintmask 1010101111000000
          1264 -25 rmoveto
          192 126 142 236 238 -118 141 -200 -201 -119 -139 -240 -234 123 -144 197 hvcurveto
          655 vmoveto
          107 36 -99 -178 -158 -32 -116 -107 -112 -34 100 174 178 37 99 105 hvcurveto
          -549 427 rmoveto
          246 -126 132 -190 -192 -126 -129 -247 vhcurveto
          hintmask 0101101111000000
          -238 123 -141 200 192 119 146 231 vhcurveto
          -316 276 rmoveto
          95 46 -82 -194 -173 -37 -102 -104 -108 -37 100 175 176 37 100 108 hvcurveto
          933 40 rmoveto
          -15 10 -16 10 -16 10 rrcurveto
          hintmask 1010011111000000
          -13 21 -40 12 -36 14 -288 -472 -295 -469 -281 -477 18 -12 22 -14 33 -13 67 -27 rcurveline
          endchar
        </CharString>
        <CharString name="period">
          -668 -28 -3 callgsubr
          -28 -31 callgsubr
        </CharString>
        <CharString name="periodcentered">
          -668 636 -3 callgsubr
          636 -31 callgsubr
        </CharString>
        <CharString name="pi">
          -8 -12 -21 801 173 35 -20 hstem
          362 200 224 265 vstem
          1253 976 rmoveto
          -29 -49 -45 -6 -64 -217 -221 2 -189 hhcurveto
          -237 -81 -100 -102 -84 hvcurveto
          62 -103 68 54 51 40 115 22 rlinecurve
          -6 -263 -52 -304 -136 -163 20 -57 rcurveline
          79 11 81 22 67 25 rrcurveto
          45 53 102 277 415 vvcurveto
          67 89 -1 -1 88 hvcurveto
          -12 -180 -8 -172 -162 vvcurveto
          -205 66 -73 158 115 89 54 101 60 vhcurveto
          -71 113 -36 -39 -30 -30 -40 -19 rlinecurve
          -45 15 -1 97 126 vvcurveto
          146 3 139 8 86 vhcurveto
          65 61 0 4 53 hvcurveto
          14 41 17 60 7 64 -26 42 rcurveline
          endchar
        </CharString>
        <CharString name="plus">
          -41 110 -21 420 165 418 -20 hstem
          537 193 vstem
          730 1031 rmoveto
          52 -17 -43 9 -86 hhcurveto
          -47 -418 -230 hlineto
          -22 -20 0 -18 hhcurveto
          -70 -44 -8 -78 hvcurveto
          -79 404 -322 vlineto
          -89 28 -9 95 vhcurveto
          70 420 295 hlineto
          81 26 12 75 4 hvcurveto
          78 -406 357 vlineto
          endchar
        </CharString>
        <CharString name="plusminus">
          -85 34 164 473 165 337 -20 hstem
          501 193 vstem
          1006 34 rmoveto
          54 5 32 28 54 vvcurveto
          77 -829 vlineto
          -99 -31 -7 -79 hvcurveto
          -78 vlineto
          821 637 rmoveto
          68 6 17 24 4 57 rrcurveto
          78 -349 258 vlineto
          70 -9 -37 9 -100 hhcurveto
          -47 -337 -153 hlineto
          -46 -44 0 -6 -39 hvcurveto
          -47 -7 -19 -13 -61 vvcurveto
          -78 348 -245 vlineto
          -81 24 -11 78 vhcurveto
          91 337 hlineto
          endchar
        </CharString>
        <CharString name="product">
          265 -166 100 1338 116 hstem
          244 224 505 217 -217 394 vstem
          122 1388 rmoveto
          -100 vlineto
          165 -12 17 -6 -94 vvcurveto
          -1113 vlineto
          -101 -41 -19 -135 -8 vhcurveto
          -101 550 98 vlineto
          -145 16 -5 9 106 vvcurveto
          1178 vlineto
          28 5 3 32 vhcurveto
          421 hlineto
          38 9 -3 -36 hvcurveto
          -1170 vlineto
          -110 -18 -6 -150 -13 vhcurveto
          -100 562 100 vlineto
          -155 12 -22 11 108 vvcurveto
          1111 vlineto
          88 45 12 89 8 vhcurveto
          47 4 rlineto
          100 vlineto
          endchar
        </CharString>
        <CharString name="q">
          31 4 callsubr
          130 hstem
          104 325 423 312 vstem
          845 13 callsubr
          -72 -44 -87 -62 -83 hhcurveto
          -140 -62 146 239 253 65 127 130 54 93 -16 -44 75 hvcurveto
          -183 -1 -184 -204 vvcurveto
          13 698 rmoveto
          32 -69 -141 39 -87 hhcurveto
          -273 -184 -235 -280 -329 187 -205 262 106 100 31 56 93 hvcurveto
          -286 vlineto
          -110 -13 -14 -104 -17 vhcurveto
          -7 -109 rlineto
          16 121 92 5 68 hhcurveto
          70 87 -4 -17 122 hvcurveto
          -7 108 rlineto
          -117 19 0 11 106 vvcurveto
          978 vlineto
          95 64 52 52 28 vhcurveto
          79 vlineto
          18 -74 -119 1 -91 hhcurveto
          -119 25 -2 -2 -44 hvcurveto
          endchar
        </CharString>
        <CharString name="question">
          -255 -35 293 1011 155 hstem
          295 372 vstem
          623 383 rmoveto
          -7 41 -1 51 42 vvcurveto
          107 20 34 36 30 vhcurveto
          158 132 128 107 161 vvcurveto
          225 -194 123 -269 -181 -212 -75 0 vhcurveto
          -249 168 vlineto
          1 71 3 66 0 vvcurveto
          21 80 62 11 57 hhcurveto
          88 68 -65 -119 -109 -51 -81 -94 -94 hvcurveto
          -65 -65 -96 -72 -104 vvcurveto
          -83 91 -78 67 -37 vhcurveto
          63 19 2 7 61 hvcurveto
          -123 -125 rmoveto
          -102 -53 -74 -73 -71 50 -72 109 102 45 66 69 76 -56 79 -95 hvcurveto
          endchar
        </CharString>
        <CharString name="questiondown">
          -255 -346 -21 348 155 608 308 95 293 hstemhm
          391 372 -307 399 hintmask 10100100
          435 1022 rmoveto
          7 -41 1 -51 -42 vvcurveto
          -107 -20 -34 -36 -30 vhcurveto
          -158 -132 -128 -107 -161 vvcurveto
          -225 194 -123 269 181 212 75 0 vhcurveto
          249 -168 vlineto
          -1 -71 -3 -66 0 vvcurveto
          -21 -80 -62 -11 -57 hhcurveto
          -88 -68 65 119 109 51 81 94 94 hvcurveto
          65 65 96 72 104 vvcurveto
          83 -91 78 -67 37 vhcurveto
          hintmask 01011000
          -63 -19 -2 -7 -61 hvcurveto
          123 125 rmoveto
          102 53 74 73 71 -50 72 -109 -102 -45 -66 -69 -76 56 -79 95 hvcurveto
          endchar
        </CharString>
        <CharString name="quotedbl">
          -388 937 -21 538 -20 hstem
          794 1337 rmoveto
          25 -7 21 -14 20 vhcurveto
          35 -14 -29 16 -55 hhcurveto
          -64 -46 -15 -27 -35 hvcurveto
          8 -139 15 -125 13 -131 4 -38 6 -38 37 -6 rrcurveto
          -10 15 18 -6 22 hhcurveto
          31 28 8 12 -6 callgsubr
          -404 hmoveto
          26 -7 19 -13 21 vhcurveto
          35 -14 -30 16 -55 hhcurveto
          -64 -47 -15 -27 -33 hvcurveto
          7 -139 14 -125 14 -131 rrcurveto
          -57 6 24 -44 68 hhcurveto
          34 29 9 14 -6 callgsubr
          endchar
        </CharString>
        <CharString name="quotedblbase">
          -207 -355 -21 734 -20 hstem
          309 358 rmoveto
          -74 callsubr
          521 hmoveto
          -74 callsubr
          endchar
        </CharString>
        <CharString name="quotedblleft">
          -275 -22 callsubr
          112 350 119 351 vstem
          409 1491 rmoveto
          -187 -126 -111 -159 -176 vvcurveto
          -111 44 -73 136 83 88 49 111 67 -46 -7 callsubr
          -28 37 -23 18 -25 15 rrcurveto
          470 hmoveto
          -185 -124 -113 -160 -174 vvcurveto
          -113 42 -74 137 86 86 49 111 67 -47 51 -65 9 vhcurveto
          23 124 43 89 68 75 -27 37 -23 18 -25 15 rrcurveto
          endchar
        </CharString>
        <CharString name="quotedblright">
          -276 -22 callsubr
          121 351 119 350 vstem
          644 846 rmoveto
          186 125 112 160 176 vvcurveto
          111 -44 73 -136 -84 -87 -49 -111 -67 46 -51 66 -9 vhcurveto
          -24 -124 -43 -89 -68 -75 28 -37 23 -18 25 -15 rrcurveto
          -470 hmoveto
          -23 callsubr
          -86 -86 -49 -111 -67 47 -51 65 -9 vhcurveto
          -23 -17 callsubr
        </CharString>
        <CharString name="quoteleft">
          -744 -22 callsubr
          117 351 vstem
          415 1491 rmoveto
          -186 -125 -112 -158 -175 vvcurveto
          -113 42 -74 137 85 87 49 111 67 -47 -7 callsubr
          -27 37 -24 18 -24 15 rrcurveto
          endchar
        </CharString>
        <CharString name="quoteright">
          -745 -22 callsubr
          100 351 vstem
          153 846 rmoveto
          -23 callsubr
          -85 -87 -49 -111 -67 47 -51 66 -9 vhcurveto
          -24 -17 callsubr
        </CharString>
        <CharString name="quotesinglbase">
          -732 -355 -21 734 -20 hstem
          339 358 rmoveto
          -74 callsubr
          endchar
        </CharString>
        <CharString name="quotesingle">
          -791 937 -21 538 -20 hstem
          390 1337 rmoveto
          2 0 3 2 vvcurveto
          22 -8 19 -12 18 vhcurveto
          35 -14 -32 16 -53 hhcurveto
          -65 -57 -18 -32 -22 hvcurveto
          6 -134 15 -123 14 -130 rrcurveto
          -57 8 21 -44 69 hhcurveto
          35 28 10 13 27 hvcurveto
          6 68 14 132 20 198 rrcurveto
          endchar
        </CharString>
        <CharString name="r">
          -90 callsubr
          187 vlineto
          endchar
        </CharString>
        <CharString name="radical">
          -239 -316 -21 2117 -20 hstem
          994 1780 rmoveto
          -1547 -248 -1 0 -1 hhcurveto
          -279 711 -400 -188 35 -106 176 87 438 -1074 130 69 331 2007 rlineto
          endchar
        </CharString>
        <CharString name="rcaron">
          -90 callsubr
          -129 390 -92 callsubr
          rrcurveto
          endchar
        </CharString>
        <CharString name="rcommaaccent">
          -246 258 -447 114 44 endchar
        </CharString>
        <CharString name="registered">
          414 -39 139 221 82 -82 399 286 84 226 139 hstemhm
          113 154 343 175 210 180 287 149 hintmask 1011111110000000
          839 1006 rmoveto
          113 43 -35 -107 -103 -51 -42 -114 -16 -15 0 1 -14 hvcurveto
          285 vlineto
          1 17 18 0 19 hhcurveto
          -229 -543 rmoveto
          -25 -2 -19 -4 -13 vhcurveto
          -3 -16 -17 0 -18 hhcurveto
          -46 -82 hlineto
          5 63 52 3 50 hhcurveto
          72 61 -3 -5 76 hvcurveto
          82 vlineto
          hintmask 1101111110000000
          -43 hlineto
          -17 -16 1 2 -14 hvcurveto
          -3 15 -3 17 26 vvcurveto
          187 vlineto
          -1 33 33 0 34 hhcurveto
          53 -69 43 -79 40 -97 rrcurveto
          -69 28 28 -23 62 hhcurveto
          54 58 26 34 42 hvcurveto
          -12 61 -49 -21 -14 -1 -13 -1 rlinecurve
          -11 8 -10 26 -5 11 -31 69 -59 102 -102 35 rrcurveto
          105 25 83 71 111 vvcurveto
          173 -137 48 -204 -73 -68 0 -4 -68 vhcurveto
          -59 -3 -39 -8 -35 -2 rrcurveto
          -69 71 vlineto
          15 14 -2 12 hhcurveto
          4 -12 2 -18 -23 vvcurveto
          -343 -242 -69 callgsubr
          endchar
        </CharString>
        <CharString name="ring">
          -642 1175 86 243 84 hstem
          94 95 248 95 vstem
          437 1382 -32 callgsubr
          76 48 -48 -74 vhcurveto
          -60 callsubr
        </CharString>
        <CharString name="s">
          -257 -23 1 callgsubr
          hstem
          91 0 callsubr
          vstem
          -82 callsubr
          endchar
        </CharString>
        <CharString name="scaron">
          -278 -23 1 callgsubr
          166 -21 362 -20 hstemhm
          105 0 callsubr
          hintmask 00110000
          467 1200 -92 callsubr
          rrcurveto
          -193 -1366 -94 callgsubr
          rlineto
          hintmask 11001100
          -187 35 rlineto
          endchar
        </CharString>
        <CharString name="section">
          -270 -133 147 1342 145 hstemhm
          133 191 -158 194 362 198 -173 173 hintmask 11011000
          279 957 rmoveto
          hintmask 11100100
          -96 -51 -50 -72 -125 vvcurveto
          -197 148 -64 96 -59 vhcurveto
          139 -66 rlineto
          164 -78 42 -35 -57 vvcurveto
          -93 -78 -46 -109 -160 -70 73 141 -45 vhcurveto
          -119 hlineto
          -3 -51 -1 -78 -114 vvcurveto
          15 -16 23 -15 31 -14 rrcurveto
          -49 106 103 -24 101 hhcurveto
          228 176 94 225 97 -40 78 -81 59 hvcurveto
          88 51 51 90 121 vvcurveto
          163 -79 61 -301 135 vhcurveto
          -123 55 -75 38 93 vvcurveto
          88 66 41 101 115 38 -41 -99 35 vhcurveto
          114 -4 41 216 rlineto
          0 -148 73 -151 -224 -181 -88 -220 -112 36 -63 77 -61 vhcurveto
          145 -81 rmoveto
          5 -3 15 -6 117 -53 rrcurveto
          74 -34 112 -73 -64 vvcurveto
          -57 -36 -48 -72 -39 vhcurveto
          -36 15 -35 16 -110 58 rrcurveto
          -92 48 -42 29 71 vvcurveto
          64 36 39 64 37 vhcurveto
          endchar
        </CharString>
        <CharString name="semicolon">
          -735 -359 -21 1086 325 hstem
          105 337 vstem
          76 -327 rmoveto
          22 -25 25 -5 33 -23 rrcurveto
          178 121 114 163 184 vvcurveto
          107 -49 70 -129 -87 -83 -57 -82 -24 8 -18 11 -13 vhcurveto
          6 -51 35 -33 49 -9 -3 -14 -4 -14 -4 -14 rrcurveto
          1 -4 0 -1 -4 vvcurveto
          -24 -75 -34 -72 -44 -54 -7 -18 -7 -18 -7 -17 rrcurveto
          180 1356 rmoveto
          -91 -7 -60 -60 -92 vvcurveto
          -98 60 -66 112 94 71 60 108 86 -69 71 -98 -7 -7 -1 -1 -5 vhcurveto
          endchar
        </CharString>
        <CharString name="seven">
          -74 10 -21 1264 160 hstem
          313 1001 rmoveto
          10 149 2 25 3 29 5 34 rlinecurve
          11 46 54 4 60 hhcurveto
          404 hlineto
          -562 -1168 -9 -19 -6 -16 -4 -11 rlinecurve
          -37 25 45 -13 76 hhcurveto
          128 51 67 131 60 hvcurveto
          451 1062 rlineto
          85 -4 47 -22 32 vhcurveto
          -488 hlineto
          -225 -149 -2 -46 -163 hvcurveto
          50 -364 rlineto
          endchar
        </CharString>
        <CharString name="six">
          -53 -30 146 604 157 405 154 hstem
          109 319 437 308 vstem
          422 756 rmoveto
          2 50 3 41 4 39 rrcurveto
          225 9 85 171 179 hhcurveto
          46 57 -11 -25 72 hvcurveto
          32 -228 rlineto
          174 hlineto
          7 341 rlineto
          50 -71 -151 27 -151 hhcurveto
          -415 -195 -278 -517 -454 176 -217 357 320 211 192 272 271 -170 172 -252 -116 -107 -39 -82 -106 hvcurveto
          5 -259 rmoveto
          2 73 91 100 82 17 rrcurveto
          19 32 30 14 22 hhcurveto
          123 -4 56 -114 -171 vvcurveto
          -204 -87 -111 -126 -146 -79 152 229 vhcurveto
          endchar
        </CharString>
        <CharString name="slash">
          -432 -71 -21 hstem
          664 1426 rmoveto
          -208 -467 -206 -468 -207 -467 -43 -101 rcurveline
          -10 19 28 -5 36 hhcurveto
          60 hlineto
          19 16 2 6 14 hvcurveto
          21 35 20 39 18 41 584 1319 rcurveline
          15 35 14 34 14 34 rrcurveto
          7 -31 -33 5 -31 hhcurveto
          -44 -43 -10 -29 -32 hvcurveto
          endchar
        </CharString>
        <CharString name="space">
          -778 endchar
        </CharString>
        <CharString name="sterling">
          -64 -4 146 524 129 498 148 hstem
          306 295 vstem
          306 371 rmoveto
          -147 -79 -62 -151 -45 vhcurveto
          -50 9 -36 35 -31 vhcurveto
          -2 154 225 -2 189 hhcurveto
          198 156 6 13 116 hvcurveto
          18 121 10 111 110 vvcurveto
          -141 28 rlineto
          -230 -84 -74 -13 -226 hhcurveto
          -171 hlineto
          75 125 36 111 140 vvcurveto
          41 -3 47 -4 60 vhcurveto
          168 22 -1 20 hhcurveto
          62 37 8 62 hvcurveto
          60 -324 vlineto
          -14 132 rlineto
          -6 51 -2 45 32 vvcurveto
          153 58 85 115 128 74 -76 -174 53 vhcurveto
          180 23 rlineto
          -1 44 0 45 45 vvcurveto
          44 0 45 1 44 vhcurveto
          77 -84 -190 31 -161 hhcurveto
          -235 -247 -77 -303 -67 11 -89 16 -110 hvcurveto
          -96 hlineto
          -54 -33 -3 -65 hvcurveto
          -61 200 vlineto
          10 -108 4 -96 -91 vvcurveto
          endchar
        </CharString>
        <CharString name="summation">
          50 -171 195 1251 113 hstem
          1030 269 rmoveto
          -228 -84 -15 -17 -162 hhcurveto
          -475 hlineto
          428 653 -118 197 -120 204 -118 197 rlinecurve
          347 hlineto
          117 44 -11 -39 24 hvcurveto
          24 -39 21 -76 21 -108 103 23 rcurveline
          -8 88 -10 105 -5 75 -6 95 rcurveline
          -953 -79 hlineto
          143 -246 142 -250 144 -246 -442 -659 rcurveline
          -79 962 vlineto
          96 412 rlineto
          endchar
        </CharString>
        <CharString name="t">
          -332 -16 -82 callgsubr
          -25 -171 rlineto
          endchar
        </CharString>
        <CharString name="thorn">
          -76 -451 -21 256 -21 214 146 -118 -2 callgsubr
          34 -20 hstemhm
          -1379 317 418 325 497 313 13 224 186 325 hintmask 1110010111111000
          177 -196 rmoveto
          -51 callsubr
          vvcurveto
          218 vlineto
          hintmask 1110011011111000
          187 hlineto
          -47 callsubr
          hintmask 1100110111111000
          -35 callsubr
          -1050 -1 -101 -289 vvcurveto
          737 721 rmoveto
          hintmask 1101010111111000
          -58 callsubr
        </CharString>
        <CharString name="three">
          -87 -35 151 540 143 483 3 callsubr
          815 251 -251 301 hintmask 11110000
          806 1086 rmoveto
          -176 -201 -102 -146 -9 vhcurveto
          -84 -5 -8 -38 -1 -53 -1 -47 rlinecurve
          94 hlineto
          227 129 -84 -187 -157 -93 -112 -162 -131 -125 71 204 -20 hvcurveto
          -155 19 -16 -137 -1 -75 -3 -73 rlinecurve
          -92 96 183 -68 200 hhcurveto
          hintmask 11101000
          318 210 157 253 218 -143 129 -243 32 hvcurveto
          207 46 129 119 160 vvcurveto
          241 -233 115 -259 -234 -182 -87 -179 -65 vhcurveto
          191 -137 rlineto
          163 35 134 87 129 hhcurveto
          120 104 -66 -130 hvcurveto
          endchar
        </CharString>
        <CharString name="threequarters">
          696 6 93 146 97 189 94 721 95 hstemhm
          563 156 -156 187 812 199 hintmask 11111010
          557 1225 rmoveto
          -106 -122 -64 -92 5 callgsubr
          58 vlineto
          141 9 callsubr
          -89 -71 51 119 -11 hvcurveto
          -97 12 -9 -85 -1 -47 -2 -3 callsubr
          hintmask 11110110
          171 156 79 175 137 -87 77 -152 21 hvcurveto
          134 28 74 -1 callgsubr
          -146 -112 -54 -110 -41 vhcurveto
          119 -86 rlineto
          102 21 85 53 78 hhcurveto
          76 62 -41 -80 hvcurveto
          1005 -548 rmoveto
          -335 -231 vlineto
          476 -97 rmoveto
          16 15 -1 13 hhcurveto
          41 29 6 50 hvcurveto
          42 -174 526 vlineto
          57 -36 0 -63 vhcurveto
          -86 hlineto
          -70 -94 -103 -150 -186 -268 -14 -20 -12 -18 -11 -19 rrcurveto
          -54 23 -32 19 -25 vhcurveto
          354 -2 callsubr
          -18 0 -20 hhcurveto
          -69 -103 hlineto
          7 95 63 3 68 hhcurveto
          61 72 -3 -7 85 hvcurveto
          103 -69 vlineto
          -20 -18 1 2 -16 hvcurveto
          -5 16 -1 23 31 vvcurveto
          73 vlineto
          -1102 -104 rmoveto
          -29 -57 -26 -55 -25 -53 rrcurveto
          -4 25 31 -4 31 hhcurveto
          40 41 7 27 28 hvcurveto
          633 1267 28 55 25 56 26 53 rlinecurve
          -33 callgsubr
        </CharString>
        <CharString name="threesuperior">
          -444 531 94 721 95 hstemhm
          573 156 -156 188 hintmask 11100000
          567 1225 rmoveto
          -106 -121 -64 -93 5 callgsubr
          59 vlineto
          140 9 callsubr
          -88 -71 51 119 -12 hvcurveto
          -96 12 -10 -85 -1 -47 -1 -3 callsubr
          hintmask 11010000
          170 157 79 175 137 -88 77 -151 21 hvcurveto
          134 28 73 -1 callgsubr
          -145 -113 -54 -110 -40 vhcurveto
          118 -86 rlineto
          102 22 84 53 79 hhcurveto
          76 61 -41 -80 hvcurveto
          endchar
        </CharString>
        <CharString name="tilde">
          -120 1251 -13 callgsubr
          hintmask 10000000
          637 1451 -67 callgsubr
          endchar
        </CharString>
        <CharString name="trademark">
          768 591 63 -45 -21 732 73 hstemhm
          333 188 482 104 577 184 hintmask 01111100
          1691 692 rmoveto
          -34 -9 -31 -3 -44 hhcurveto
          -3 -66 rlineto
          2 62 62 1 62 hhcurveto
          70 63 -1 -3 63 hvcurveto
          -4 67 rlineto
          -89 -6 1 112 -13 hvcurveto
          -11 226 -5 107 -4 93 -2 81 rlinecurve
          35 16 30 16 65 hhcurveto
          63 vlineto
          3 -69 -64 1 -59 hhcurveto
          -37 -33 -2 -4 -28 hvcurveto
          -75 -157 -92 -219 -75 -168 -239 544 rcurveline
          4 -30 -34 2 -40 hhcurveto
          -62 -67 -1 -3 -73 hvcurveto
          -63 vlineto
          55 -1 38 -13 30 -31 2 -49 rcurveline
          -7 -178 -4 -180 -17 -182 rrcurveto
          -34 -16 -39 -3 -49 hhcurveto
          -5 -67 rlineto
          3 67 64 1 63 hhcurveto
          40 42 -1 -2 47 hvcurveto
          4 66 rlineto
          -57 -48 3 53 15 18 412 0 hvcurveto
          231 -546 rlineto
          40 hlineto
          22 22 1 22 hhcurveto
          68 148 75 175 82 202 rrcurveto
          0 1 0 14 vhcurveto
          -1360 -426 rmoveto
          hintmask 10111100
          -35 -16 -39 -3 -48 hhcurveto
          hintmask 01111100
          -66 vlineto
          hintmask 10111100
          2 76 67 1 59 hhcurveto
          hintmask 01111100
          56 66 -1 -2 73 hvcurveto
          hintmask 10111100
          66 vlineto
          -48 -40 3 35 -15 hvcurveto
          -1 20 0 22 27 vvcurveto
          559 115 vlineto
          59 22 -12 -108 7 hvcurveto
          71 hlineto
          48 3 92 48 vvcurveto
          4 -37 -52 1 -68 hhcurveto
          -430 hlineto
          -67 -52 -1 -4 -37 hvcurveto
          -48 2 -92 -48 vvcurveto
          72 hlineto
          72 5 20 48 43 hhcurveto
          136 -559 hlineto
          -27 -1 -22 -1 -20 vhcurveto
          endchar
        </CharString>
        <CharString name="two">
          -34 0 199 1093 144 hstem
          808 301 vstem
          617 1292 rmoveto
          126 65 -83 -149 -135 -51 -104 -116 -129 hvcurveto
          -146 -152 -170 -167 -225 -215 rrcurveto
          -5 -28 -4 -24 -21 vvcurveto
          -63 7 27 -22 78 hhcurveto
          565 hlineto
          189 104 3 17 79 hvcurveto
          9 103 3 120 1 149 -36 3 -40 8 -42 3 -61 -140 -91 -43 -64 -25 rrcurveto
          1 -99 -85 0 -222 hhcurveto
          539 417 157 204 217 vvcurveto
          262 -190 137 -303 -263 -227 -106 -171 -16 vhcurveto
          212 -151 rlineto
          178 38 132 106 125 hhcurveto
          endchar
        </CharString>
        <CharString name="twosuperior">
          -426 549 124 678 89 hstem
          556 187 vstem
          437 1347 rmoveto
          79 40 -52 -92 -39 -8 -40 -15 -33 hvcurveto
          -36 -20 callgsubr
          -40 4 16 -14 50 hhcurveto
          350 hlineto
          120 64 2 11 47 hvcurveto
          6 73 3 78 80 vvcurveto
          -23 2 -25 5 -27 2 rrcurveto
          -97 -43 -53 -32 -72 hhcurveto
          -217 hlineto
          279 220 153 135 164 vvcurveto
          161 -111 87 -196 -26 callsubr
          endchar
        </CharString>
        <CharString name="u">
          -28 callsubr
          hstem
          -15 callsubr
          vstem
          -104 callsubr
          698 vlineto
          endchar
        </CharString>
        <CharString name="uacute">
          22 1199 345 hstem
          688 -57 callgsubr
          703 -231 -107 callsubr
          endchar
        </CharString>
        <CharString name="ucircumflex">
          22 1219 12 callsubr
          hstem
          1019 1219 -80 callsubr
          194 -251 -107 callsubr
          endchar
        </CharString>
        <CharString name="udieresis">
          -28 callsubr
          76 312 hstemhm
          216 312 -134 -23 callgsubr
          -329 311 hintmask 11010010
          -104 callsubr
          -604 987 -66 callsubr
          hintmask 00101100
          -85 callsubr
        </CharString>
        <CharString name="ugrave">
          22 1198 0 callgsubr
          hintmask 10000000
          hintmask 01000000
          661 1198 rmoveto
          hintmask 10000000
          -32 callsubr
          839 -576 -107 callsubr
          endchar
        </CharString>
        <CharString name="underscore">
          -281 -324 149 1 -20 hstemhm
          hintmask 10000000
          951 -324 rmoveto
          52 12 36 19 49 vvcurveto
          69 vlineto
          hintmask 01000000
          -866 hlineto
          hintmask 10000000
          -19 -19 1 -19 hhcurveto
          -69 -57 -7 -71 hvcurveto
          -72 961 vlineto
          endchar
        </CharString>
        <CharString name="uni0002">
          -1310 endchar
        </CharString>
        <CharString name="uni0009">
          -1310 endchar
        </CharString>
        <CharString name="uni00A0">
          -730 endchar
        </CharString>
        <CharString name="uni00AD">
          -538 452 170 -1 -20 hstemhm
          hintmask 10000000
          625 452 rmoveto
          53 10 37 18 46 vvcurveto
          hintmask 01000000
          96 vlineto
          hintmask 10000000
          -506 -17 -1 -18 hhcurveto
          -35 -66 -1 -67 hvcurveto
          -101 552 vlineto
          endchar
        </CharString>
        <CharString name="uni0200">
          -50 callsubr
          261 346 hstemhm
          -106 callsubr
          321 510 -96 callsubr
        </CharString>
        <CharString name="uni0201">
          -59 callgsubr
          210 346 -90 callgsubr
          340 1046 -96 callsubr
        </CharString>
        <CharString name="uni0202">
          -50 callsubr
          303 -62 callsubr
          -106 callsubr
          36 856 -71 callgsubr
        </CharString>
        <CharString name="uni0203">
          -59 callgsubr
          252 -62 callsubr
          -30 callsubr
          hintmask 11100011
          -106 callgsubr
          hintmask 00010000
          -83 1392 -96 callgsubr
          hintmask 00001100
          -35 callgsubr
          hintmask 00010000
          -75 callgsubr
        </CharString>
        <CharString name="uni0204">
          -69 callsubr
          241 346 -94 callsubr
          462 241 -100 callsubr
          hintmask 00000100
          -103 callgsubr
        </CharString>
        <CharString name="uni0205">
          -55 callgsubr
          210 346 -78 callgsubr
          211 647 -96 callsubr
        </CharString>
        <CharString name="uni0206">
          -69 callsubr
          283 -62 callsubr
          284 319 hintmask 1001100010000000
          -93 callgsubr
          hintmask 0101100010000000
          -31 callsubr
          hintmask 0011100010000000
          -77 callsubr
          hintmask 1001100010000000
          -104 callgsubr
          hintmask 0000010000000000
          39 587 -96 callgsubr
          hintmask 0000001100000000
          -35 callgsubr
          hintmask 0000010000000000
          -75 callgsubr
        </CharString>
        <CharString name="uni0207">
          -55 callgsubr
          252 -62 callsubr
          -21 callgsubr
          hintmask 11100011
          -100 callgsubr
          -212 993 -71 callgsubr
        </CharString>
        <CharString name="uni0208">
          -453 -53 callsubr
          235 346 -84 callgsubr
          782 1508 -96 callsubr
        </CharString>
        <CharString name="uni0209">
          -30 callgsubr
          239 346 -74 callgsubr
          542 445 -102 callsubr
        </CharString>
        <CharString name="uni020A">
          -453 -53 callsubr
          277 -62 callsubr
          269 319 hintmask 01100010
          hintmask 10100010
          68 -13 rmoveto
          hintmask 01100010
          -50 callgsubr
          hintmask 10100010
          -101 callsubr
          hintmask 01100010
          -106 hlineto
          360 1854 -71 callgsubr
        </CharString>
        <CharString name="uni020B">
          -582 7 -21 1039 -20 281 -62 callsubr
          2 callgsubr
          hintmask 11000100
          -99 callgsubr
          140 791 -81 callgsubr
        </CharString>
        <CharString name="uni020C">
          -44 callgsubr
          218 346 -76 callgsubr
          778 955 -102 callsubr
        </CharString>
        <CharString name="uni020D">
          20 -40 callsubr
          209 346 hstemhm
          105 -38 callsubr
          hintmask 11011000
          -70 callsubr
          -139 740 -102 callsubr
        </CharString>
        <CharString name="uni020E">
          -44 callgsubr
          260 304 -287 -21 100 208 -20 callsubr
          hintmask 11000110
          -99 callsubr
          hintmask 00100000
          355 1301 -54 callsubr
        </CharString>
        <CharString name="uni020F">
          20 -40 callsubr
          251 -62 callsubr
          105 -38 callsubr
          hintmask 11000110
          -70 callsubr
          hintmask 00100000
          -561 1086 -54 callsubr
        </CharString>
        <CharString name="uni0210">
          -19 callgsubr
          230 346 hstemhm
          -15 callgsubr
          hintmask 11011000
          -105 callsubr
          585 389 -102 callsubr
        </CharString>
        <CharString name="uni0211">
          -53 callgsubr
          229 346 11 callsubr
          hintmask 10010100
          -66 callgsubr
          hintmask 11000100
          -95 callgsubr
          hintmask 10100100
          -64 callsubr
          422 425 -100 callsubr
          hintmask 00001000
          -103 callgsubr
        </CharString>
        <CharString name="uni0212">
          -19 callgsubr
          272 -62 callsubr
          -15 callgsubr
          hintmask 11000110
          -105 callsubr
          163 735 -81 callgsubr
        </CharString>
        <CharString name="uni0213">
          -53 callgsubr
          271 -62 callsubr
          236 312 hintmask 10010001
          -66 callgsubr
          hintmask 11000001
          -95 callgsubr
          hintmask 10100001
          -64 callsubr
          -1 771 -96 callgsubr
          hintmask 00001000
          -35 callgsubr
          hintmask 00000110
          -75 callgsubr
        </CharString>
        <CharString name="uni0214">
          -45 callgsubr
          235 346 -91 callsubr
          -174 1139 -102 callsubr
        </CharString>
        <CharString name="uni0215">
          -28 callsubr
          220 346 hstemhm
          -15 callsubr
          hintmask 11011000
          -104 callsubr
          -100 974 -102 callsubr
        </CharString>
        <CharString name="uni0216">
          -45 callgsubr
          277 -62 callsubr
          -27 callgsubr
          hintmask 11000110
          -105 callgsubr
          -597 1485 -81 callgsubr
        </CharString>
        <CharString name="uni0217">
          -28 callsubr
          262 -62 callsubr
          -15 callsubr
          hintmask 11000110
          -104 callsubr
          -523 1320 -81 callgsubr
        </CharString>
        <CharString name="uni0218">
          -32 -770 -18 callgsubr
          135 147 1319 -20 hstemhm
          107 319 425 324 hintmask 00111100
          -87 callsubr
          128 -1880 -88 callsubr
        </CharString>
        <CharString name="uni0219">
          -257 -763 -18 callgsubr
          135 1 callgsubr
          hstemhm
          91 0 callsubr
          hintmask 00111100
          -82 callsubr
          294 -1128 -88 callsubr
        </CharString>
        <CharString name="uni021A">
          106 -14 callsubr
          112 -25 callgsubr
          hintmask 00101010
          -56 callsubr
          hintmask 00100110
          -44 callsubr
          hintmask 00011010
          -91 hlineto
          hintmask 00101010
          -159 vlineto
          hintmask 00011010
          11 140 1 callsubr
          hintmask 00100110
          -36 callsubr
          hintmask 00101010
          -22 callgsubr
          -618 -1779 -88 callsubr
        </CharString>
        <CharString name="uni021B">
          -332 -14 callsubr
          96 -82 callgsubr
          126 -1917 -57 callsubr
        </CharString>
        <CharString name="uni02C9">
          -536 1239 146 hstem
          722 1239 rmoveto
          146 -669 -146 vlineto
          endchar
        </CharString>
        <CharString name="uni030F">
          26 1244 346 hstem
          1080 1244 -101 callgsubr
          214 -221 rcurveline
          -102 callgsubr
        </CharString>
        <CharString name="uni0311">
          -179 1286 -62 callsubr
          hintmask 10000000
          hintmask 01100000
          582 1590 -96 callgsubr
          hintmask 10000000
          -35 callgsubr
          -75 callgsubr
        </CharString>
        <CharString name="uni0326">
          -750 -14 callsubr
          hstem
          134 -738 -57 callsubr
        </CharString>
        <CharString name="uni2215">
          -232 -67 -21 1552 -20 hstem
          136 -88 rmoveto
          944 1552 rlineto
          -153 hlineto
          -944 -1552 rlineto
          endchar
        </CharString>
        <CharString name="uni2219">
          -707 414 327 -283 254 hstemhm
          136 332 -330 333 hintmask 10100000
          hintmask 01010000
          306 414 rmoveto
          hintmask 10100000
          106 1 59 71 91 vvcurveto
          hintmask 01010000
          88 -64 76 -102 vhcurveto
          hintmask 10100000
          -103 -13 callsubr
          107 hvcurveto
          endchar
        </CharString>
        <CharString name="v">
          -12 12 -21 891 140 2 10 callgsubr
          705 278 rmoveto
          -45 112 -64 165 -81 231 -11 30 -12 29 -8 29 rrcurveto
          6 16 20 2 24 -4 callgsubr
          47 hlineto
          -6 47 -7 41 -7 33 rrcurveto
          hintmask 11000000
          18 -115 -72 3 -81 hhcurveto
          -125 -103 -5 -16 -71 hvcurveto
          19 3 callgsubr
          54 hlineto
          27 23 -2 -6 23 hvcurveto
          15 -23 10 -24 11 -26 333 -791 rcurveline
          -19 49 39 0 48 hhcurveto
          51 48 1 4 46 hvcurveto
          76 179 84 199 136 363 59 137 rlinecurve
          6 29 30 2 32 -4 callgsubr
          49 121 hlineto
          hintmask 11000000
          15 -72 -72 6 -85 hhcurveto
          -91 -85 -6 -15 -81 hvcurveto
          -16 3 callgsubr
          53 hlineto
          28 20 -2 -6 18 hvcurveto
          -60 -196 -75 -199 -72 -201 rrcurveto
          endchar
        </CharString>
        <CharString name="w">
          569 12 -21 891 141 1 10 callgsubr
          1130 927 rmoveto
          60 -20 -47 7 -80 hhcurveto
          -40 -32 -3 -11 -23 hvcurveto
          -48 -84 -68 -254 -116 -369 -188 601 rcurveline
          6 15 20 2 25 -4 callgsubr
          46 9 callgsubr
          hintmask 11000000
          18 -103 -86 3 -82 hhcurveto
          -119 -100 -6 -15 -66 hvcurveto
          8 3 callgsubr
          59 hlineto
          28 26 -2 -6 23 hvcurveto
          15 -25 12 -25 10 -27 289 -779 rcurveline
          -16 38 39 -11 61 hhcurveto
          53 51 1 4 47 hvcurveto
          54 149 82 239 71 230 180 -540 rcurveline
          -21 20 -33 9 -13 vhcurveto
          -11 43 40 -5 44 hhcurveto
          53 50 1 4 47 hvcurveto
          66 192 115 348 109 338 rrcurveto
          6 24 26 2 29 -4 callgsubr
          59 hlineto
          40 1 41 40 vvcurveto
          hintmask 11000000
          15 -73 -73 6 -85 hhcurveto
          -87 -83 -6 -15 -77 hvcurveto
          -4 -26 -8 -72 -3 -23 rrcurveto
          53 hlineto
          27 17 -2 -6 18 hvcurveto
          -8 -25 -3 -25 -7 -27 -139 -531 rcurveline
          endchar
        </CharString>
        <CharString name="x">
          3 9 -21 894 142 hstem
          855 539 rmoveto
          42 49 62 75 56 70 114 141 rcurveline
          6 31 32 2 33 hhcurveto
          44 hlineto
          18 121 rlineto
          14 -69 -67 7 -83 hhcurveto
          -90 -89 -6 -15 -83 hvcurveto
          -22 3 callgsubr
          50 hlineto
          26 16 -2 -6 15 hvcurveto
          -58 -81 -60 -86 -54 -71 -124 175 rcurveline
          -16 23 -18 19 -12 21 rrcurveto
          6 13 18 2 23 hhcurveto
          45 9 callgsubr
          18 -117 -99 3 -90 hhcurveto
          -115 -94 -7 -14 -66 hvcurveto
          14 3 callgsubr
          61 hlineto
          25 25 -2 -6 22 hvcurveto
          25 -28 24 -28 22 -31 209 -293 rcurveline
          -253 -309 -67 -52 -21 -17 -98 -9 rlinecurve
          -19 -119 rlineto
          7 77 86 5 67 hhcurveto
          87 84 -4 -8 67 hvcurveto
          7 26 12 67 8 26 -44 5 -28 6 -17 12 11 27 22 33 35 48 118 162 rcurveline
          137 -194 25 -35 17 -26 5 -16 rlinecurve
          -12 -12 -26 -5 -44 -5 16 -119 rcurveline
          8 77 97 4 96 hhcurveto
          118 110 -5 -7 72 hvcurveto
          -20 125 -103 9 -19 9 -77 105 rlinecurve
          -222 303 rlineto
          endchar
        </CharString>
        <CharString name="y">
          -13 -7 callgsubr
          hstemhm
          hintmask 11000000
          598 556 -81 callsubr
          hintmask 10100000
          60 121 hlineto
          hintmask 11000000
          -39 callsubr
          -10 callgsubr
        </CharString>
        <CharString name="yacute">
          -69 -7 callgsubr
          195 345 hstemhm
          hintmask 00010000
          668 -57 callgsubr
          84 -643 -81 callsubr
          hintmask 11000000
          60 121 hlineto
          hintmask 10100000
          -39 callsubr
          rrcurveto
          hintmask 11000000
          -10 callgsubr
        </CharString>
        <CharString name="ydieresis">
          -13 105 0 121 14 callsubr
        </CharString>
        <CharString name="yen">
          287 -15 146 147 123 104 124 645 147 1 -20 hstemhm
          642 322 hintmask 11110100
          1094 1161 rmoveto
          -41 -88 -105 -209 -87 -160 -269 473 rcurveline
          -16 27 -10 22 -10 42 rrcurveto
          6 19 25 0 27 hhcurveto
          hintmask 11101100
          78 hlineto
          -13 134 rlineto
          hintmask 11110100
          11 -88 -114 3 -117 hhcurveto
          -139 -111 -1 -12 -121 hvcurveto
          24 -135 rlineto
          86 hlineto
          28 26 0 -6 25 hvcurveto
          22 -33 16 -37 25 -42 87 -149 105 -174 122 -204 rrcurveto
          -82 hlineto
          -72 -45 -14 -39 -34 hvcurveto
          -71 304 vlineto
          3 -29 rlineto
          -75 -156 vlineto
          -74 -43 -13 -39 -34 hvcurveto
          -71 308 -45 vlineto
          -41 -4 -31 -7 -25 vhcurveto
          -5 -31 -32 0 -35 hhcurveto
          -91 -146 hlineto
          9 124 112 6 108 hhcurveto
          48 hlineto
          100 107 -6 -9 123 hvcurveto
          146 -93 vlineto
          -35 -33 1 4 -30 -65 callsubr
          33 226 vlineto
          49 31 9 62 hvcurveto
          52 -306 104 223 vlineto
          48 3 35 1 67 vvcurveto
          53 -242 vlineto
          0 242 425 39 75 vhcurveto
          135 70 5 10 51 hhcurveto
          hintmask 11101100
          126 hlineto
          32 134 rlineto
          10 -74 -83 4 -87 hhcurveto
          hintmask 11110100
          -94 hlineto
          -99 -85 -5 -8 -78 hvcurveto
          -28 -135 rlineto
          87 hlineto
          30 25 0 -6 21 hvcurveto
          -5 -34 -11 -33 -18 -40 rrcurveto
          endchar
        </CharString>
        <CharString name="z">
          -231 -11 callsubr
          hstemhm
          hintmask 10100000
          986 817 rmoveto
          86 vlineto
          hintmask 01100000
          89 -15 16 -88 vhcurveto
          hintmask 10100000
          -67 callsubr
          hintmask 10010000
          411 hlineto
          hintmask 10100000
          -48 callsubr
          -341 hlineto
          endchar
        </CharString>
        <CharString name="zcaron">
          -225 -11 callsubr
          209 -21 362 -20 hstemhm
          hintmask 00001100
          461 1200 -92 callsubr
          rrcurveto
          642 -634 rmoveto
          86 vlineto
          hintmask 10100000
          89 -15 16 -88 vhcurveto
          hintmask 01100000
          -67 callsubr
          hintmask 10100000
          411 hlineto
          hintmask 10010000
          -48 callsubr
          hintmask 10100000
          -341 hlineto
          endchar
        </CharString>
        <CharString name="zero">
          5 -41 callsubr
          hstem
          81 320 513 320 vstem
          657 -30 rmoveto
          368 209 278 459 457 -200 272 -377 -373 -203 -269 -460 -453 201 -284 375 hvcurveto
          257 737 rmoveto
          -380 -77 -202 -180 -175 -81 188 394 400 83 175 173 183 74 -196 -379 vhcurveto
          endchar
        </CharString>
      <CharString index="0">
        875 1411 rmoveto
        5 -27 -25 3 -41 hhcurveto
        -107 hlineto
        -150 -380 -189 -475 -115 -311 rrcurveto
        -77 -29 -26 -50 -92 hhcurveto
        -37 -2 -33 -137 rlineto
        11 85 98 2 130 hhcurveto
        98 86 -2 -11 73 hvcurveto
        17 135 rlineto
        -36 4 -72 0 33 vvcurveto
        33 10 38 18 56 vhcurveto
        38 121 rlineto
        461 hlineto
        46 -126 17 -47 14 -45 6 -40 rlinecurve
        -21 -52 -7 -50 -1 vhcurveto
        10 -133 rlineto
        10 126 129 3 51 hhcurveto
        69 106 -1 -12 141 hvcurveto
        -27 140 -86 6 -27 2 -27 6 rlinecurve
        -11 17 -11 24 -30 81 -87 231 -114 309 -172 460 -27 71 -57 41 -72 36 rrcurveto
        -94 -267 rmoveto
        63 -200 69 -232 57 -178 rrcurveto
        -389 hlineto
        193 610 rlineto
        return
      </CharString>
      <CharString index="1">
        1131 123 rmoveto
        -25 -25 0 1 -23 hvcurveto
        -7 29 -5 48 70 259 1 59 54 vvcurveto
        274 -156 117 -305 -242 -210 -98 -121 -10 vhcurveto
        188 -120 rlineto
        121 83 95 91 121 hhcurveto
        92 32 -78 -184 -60 callgsubr
        -194 140 -101 201 128 98 54 78 80 hvcurveto
        14 -44 21 -34 30 -25 rrcurveto
        -12 27 33 -4 40 hhcurveto
        116 104 11 25 84 hvcurveto
        97 vlineto
        -486 75 rmoveto
        -48 -61 -64 -31 -60 hhcurveto
        -81 -55 49 113 124 85 72 148 hvcurveto
        96 hlineto
        -108 -4 -90 -4 -81 vhcurveto
        return
      </CharString>
      <CharString index="2">
        1425 -9 callgsubr
        14 callgsubr
        7 27 vhcurveto
        5 29 34 0 35 hhcurveto
        93 140 hlineto
        12 -77 -97 2 -155 hhcurveto
        -122 -105 -4 -9 -101 hvcurveto
        -141 82 vlineto
        32 30 0 -5 27 -47 callgsubr
        -47 vvcurveto
        -576 vlineto
        -283 -82 -170 -220 -185 -112 136 247 vhcurveto
        215 1 216 215 vvcurveto
        41 3 35 7 31 vhcurveto
        5 28 30 0 33 hhcurveto
        86 140 hlineto
        12 -81 -108 2 -194 hhcurveto
        -114 -106 -5 -8 -106 hvcurveto
        -141 91 vlineto
        36 33 0 -5 30 -47 callgsubr
        -47 vvcurveto
        -571 vlineto
        -392 180 -220 408 339 265 173 372 vhcurveto
        return
      </CharString>
      <CharString index="3">
        3 127 rlineto
        -76 callsubr
        -371 504 243 -75 callsubr
        4 125 3 -61 callgsubr
        -232 467 hlineto
        3 145 68 1 51 -42 callgsubr
        -49 8 -48 8 -48 184 17 rcurveline
        -6 42 -12 70 -12 65 -25 129 rcurveline
        -125 -130 0 -348 hhcurveto
        return
      </CharString>
      <CharString index="4">
        214 -221 rlineto
        -102 callgsubr
      </CharString>
      <CharString index="5">
        -269 hmoveto
        15 12 0 1 10 hvcurveto
        -58 callgsubr
        -232 hlineto
        -39 -34 -8 -18 -15 hvcurveto
        26 -32 31 -32 28 -28 221 -228 rcurveline
        endchar
      </CharString>
      <CharString index="6">
        rmoveto
        13 10 0 1 8 hvcurveto
        -72 151 -31 66 -38 69 -28 59 rlinecurve
        -276 hlineto
        -17 -2 -23 -6 -24 vvcurveto
        23 -27 36 -37 29 -29 return
      </CharString>
      <CharString index="7">
        1028 224 rmoveto
        -62 -92 -93 -28 -96 hhcurveto
        -189 -112 117 214 -22 hvcurveto
        503 hlineto
        132 57 24 149 248 -190 148 -257 -343 -221 -208 -317 -340 220 -192 345 181 138 49 106 92 hvcurveto
        -658 465 rmoveto
        199 14 68 104 127 hhcurveto
        130 55 -128 -157 -6 0 -6 -1 -6 hvcurveto
        return
      </CharString>
      <CharString index="8">
        223 280 rmoveto
        -63 -7 -83 -53 vvcurveto
        -71 76 -24 98 109 102 11 22 97 vhcurveto
        -12 98 rlineto
        -62 hlineto
        -30 -26 6 8 -22 hvcurveto
        -11 36 -1 47 54 vvcurveto
        697 vlineto
        43 -6 -50 17 -98 hhcurveto
        -124 -117 -14 -21 -98 hvcurveto
        -106 105 vlineto
        28 23 -2 -5 21 hvcurveto
        4 -26 1 -25 -27 vvcurveto
        return
      </CharString>
      <CharString index="9">
        rmoveto
        213 -114 114 -183 -127 -148 -48 -96 -116 vhcurveto
        117 vlineto
        14 -79 -41 3 -47 hhcurveto
        -110 -132 -15 -15 -73 hvcurveto
        -111 114 vlineto
        26 19 -2 -6 19 hvcurveto
        3 -23 1 -25 -25 vvcurveto
        -558 vlineto
        -112 -8 -19 -111 -14 vhcurveto
        -5 -110 rlineto
        8 84 88 4 92 hhcurveto
        65 96 -5 -7 128 hvcurveto
        -10 110 rlineto
        -97 18 -10 24 98 vvcurveto
        515 vlineto
        66 62 93 56 77 hhcurveto
        78 54 -63 -162 hvcurveto
        -368 vlineto
        -64 -6 -87 -52 vvcurveto
        -71 72 -25 101 109 103 11 23 97 vhcurveto
        -12 106 rlineto
        -139 hlineto
        -8 32 -5 44 60 vvcurveto
        return
      </CharString>
      <CharString index="10">
        rmoveto
        38 -19 -76 18 -101 hhcurveto
        -104 -114 -13 -18 -80 hvcurveto
        -111 92 vlineto
        31 29 -2 -6 26 hvcurveto
        3 -43 1 -46 -45 vvcurveto
        1 -1 -519 -40 4 hvcurveto
        17 -176 3 -34 -34 vvcurveto
        -127 -21 -79 -73 -23 -43 8 3 -6 vhcurveto
        -3 28 -10 72 -3 69 -50 7 -71 12 -33 4 -32 -288 rcurveline
        -25 26 116 -33 128 hhcurveto
        return
      </CharString>
      <CharString index="11">
        rmoveto
        -199 -146 -69 -218 hvcurveto
        -35 callgsubr
        105 90 12 76 76 90 -12 -105 vhcurveto
        return
      </CharString>
      <CharString index="12">
        114 hlineto
        25 19 -3 -5 19 hvcurveto
        4 -21 0 -24 -23 -546 1 -45 -9 vvcurveto
        -76 -2 -22 -117 -15 vhcurveto
        -5 -105 rlineto
        8 92 86 4 87 hhcurveto
        60 97 -5 -7 148 hvcurveto
        -10 105 rlineto
        -125 19 0 26 127 vvcurveto
        288 vlineto
        151 80 158 174 11 12 0 -1 14 vhcurveto
        25 -149 rlineto
        return
      </CharString>
      <CharString index="13">
        rmoveto
        -63 84 202 -45 161 hhcurveto
        244 200 92 227 126 -91 89 -191 77 hvcurveto
        -127 51 -179 35 111 vvcurveto
        72 52 41 96 64 51 -4 -21 44 vhcurveto
        4 -39 3 -47 4 -53 162 -26 rcurveline
        19 91 22 96 8 54 rrcurveto
        54 -76 -124 32 -161 hhcurveto
        -298 -159 -112 -186 -142 88 -77 156 -68 hvcurveto
        114 -50 208 -42 -117 vvcurveto
        -71 -54 -55 -106 -74 -52 11 22 -43 vhcurveto
        -15 161 return
      </CharString>
      <CharString index="14">
        664 1413 rmoveto
        -205 -205 -7 -20 -186 hvcurveto
        -133 119 vlineto
        32 28 -14 callgsubr
        5 -33 -45 vvcurveto
        -893 vlineto
        -42 -4 -33 -7 -26 vhcurveto
        -4 -26 -29 0 -32 hhcurveto
        -112 -153 hlineto
        return
      </CharString>
      <CharString index="15">
        -48 callgsubr
        hvcurveto
        -93 callsubr
      </CharString>
      <CharString index="16">
        13 callgsubr
        129 97 137 16 204 rrcurveto
        108 -50 68 -129 -86 -87 -48 -113 -67 47 -50 66 -9 vhcurveto
        -22 -116 -48 -99 -64 -74 return
      </CharString>
      <CharString index="17">
        hstemhm
        -30 callsubr
        hintmask 11101100
        -106 callgsubr
        return
      </CharString>
      <CharString index="18">
        rmoveto
        257 68 131 165 160 72 -126 -262 -257 -64 -132 -168 return
      </CharString>
      <CharString index="19">
        -96 67 -93 rlinecurve
        21 -29 16 -22 13 -22 rrcurveto
        -8 -9 -18 0 -23 hhcurveto
        -109 vlineto
        8 90 92 4 101 hhcurveto
        110 95 -4 -9 83 hvcurveto
        -18 114 rlineto
        -1 -10 -10 0 -11 hhcurveto
        -89 -53 33 61 -47 hvcurveto
        -298 390 223 188 rlineto
        62 74 66 48 135 hhcurveto
        126 -529 vlineto
        return
      </CharString>
      <CharString index="20">
        rmoveto
        -4 27 -21 25 -18 26 -166 237 rcurveline
        -268 hlineto
        -188 -270 -10 -12 -7 -17 -4 -16 rlinecurve
        -14 4 18 -7 31 hhcurveto
        145 hlineto
        146 184 149 -184 rlineto
        142 hlineto
        return
      </CharString>
      <CharString index="21">
        rmoveto
        180 195 77 90 49 60 rrcurveto
        -320 hlineto
        return
      </CharString>
      <CharString index="22">
        rmoveto
        -48 -3 -35 -38 vvcurveto
        -68 22 67 -20 84 hhcurveto
        116 104 10 23 96 hvcurveto
        100 -161 vlineto
        -7 28 -5 40 59 vvcurveto
        1200 vlineto
        38 -32 -34 7 -90 hhcurveto
        -126 -117 -15 -21 -94 hvcurveto
        -100 90 vlineto
        32 29 -4 -4 25 hvcurveto
        5 -26 2 -31 -33 vvcurveto
        -928 vlineto
        return
      </CharString>
      <CharString index="23">
        11 callgsubr
        hintmask 01101000
        hintmask 10101000
        68 -13 rmoveto
        hintmask 01101000
        -50 callgsubr
        hintmask 10101000
        -101 callsubr
        hintmask 01101000
        -106 hlineto
        return
      </CharString>
      <CharString index="24">
        495 hmoveto
        -86 callsubr
        100 65 60 97 vhcurveto
        endchar
      </CharString>
      <CharString index="25">
        144 -144 339 554 131 314 -20 hstem
        214 312 vstem
        226 1008 rmoveto
        -48 -5 -52 -3 -48 -8 rrcurveto
        -36 -6 -22 -11 -35 vvcurveto
        -63 194 -571 vlineto
        -222 129 -100 227 147 123 28 58 94 vhcurveto
        251 -181 vlineto
        -6 -49 -10 -66 -2 -7 rrcurveto
        -25 -6 -44 -46 -53 hhcurveto
        -80 -26 60 136 hvcurveto
        553 147 vlineto
        19 19 -1 17 hhcurveto
        61 45 8 72 hvcurveto
        52 -308 314 -227 vlineto
        -15 -38 -14 -34 -14 -39 -5 -32 rlinecurve
        return
      </CharString>
      <CharString index="26">
        -96 callgsubr
        hintmask 00100000
        -35 callgsubr
        hintmask 00011000
        -75 callgsubr
      </CharString>
      <CharString index="27">
        -6 -13 -117 hvcurveto
        -135 107 vlineto
        31 27 -37 callgsubr
        return
      </CharString>
      <CharString index="28">
        -62 callgsubr
        65 -95 68 -88 callgsubr
        return
      </CharString>
      <CharString index="29">
        hstemhm
        -21 callgsubr
        hintmask 11101100
        -100 callgsubr
        return
      </CharString>
      <CharString index="30">
        544 123 rmoveto
        -8 40 -5 55 68 vvcurveto
        643 vlineto
        20 -3 21 -4 18 vhcurveto
        33 -42 -48 3 -62 hhcurveto
        -104 -150 -14 -17 -80 hvcurveto
        -111 105 vlineto
        27 24 -2 -6 21 hvcurveto
        3 -23 1 -26 -24 vvcurveto
        -519 vlineto
        -63 -7 -83 -52 vvcurveto
        -72 76 -24 98 109 102 11 23 97 vhcurveto
        -11 101 rlineto
        -495 1212 rmoveto
        -90 82 -56 103 97 89 50 96 92 -81 55 -105 vhcurveto
        return
      </CharString>
      <CharString index="31">
        -20 callsubr
        hintmask 11011000
        -99 callsubr
        return
      </CharString>
      <CharString index="32">
        218 -146 69 -199 vhcurveto
        endchar
      </CharString>
      <CharString index="33">
        hstemhm
        2 callgsubr
        hintmask 11010000
        -99 callgsubr
        return
      </CharString>
      <CharString index="34">
        211 198 -85 callgsubr
        -47 -1 -45 -2 -42 vhcurveto
        return
      </CharString>
      <CharString index="35">
        0 4 -26 -65 callsubr
        return
      </CharString>
      <CharString index="36">
        -96 callgsubr
        hintmask 00010000
        -35 callgsubr
        hintmask 00001100
        -75 callgsubr
      </CharString>
      <CharString index="37">
        -84 callsubr
        hintmask 00001000
        -24 callsubr
      </CharString>
      <CharString index="38">
        rmoveto
        337 249 272 346 337 263 -263 -346 -324 -239 -283 -361 -340 -255 264 343 vhcurveto
        -154 -1 rmoveto
        -416 314 -329 435 430 319 329 416 407 -306 342 -443 -443 -306 -344 -405 vhcurveto
        return
      </CharString>
      <CharString index="39">
        -86 callgsubr
        hintmask 00100000
        -72 callsubr
        endchar
      </CharString>
      <CharString index="40">
        -83 callsubr
        hintmask 01000000
        -56 callgsubr
        return
      </CharString>
      <CharString index="41">
        532 1006 rmoveto
        15 -72 -33 1 -43 hhcurveto
        -117 -139 -13 -18 -73 hvcurveto
        -109 vlineto
        return
      </CharString>
      <CharString index="42">
        hvcurveto
        23 23 -1 23 hhcurveto
        12 12 0 1 12 hvcurveto
        return
      </CharString>
      <CharString index="43">
        -46 callsubr
        769 vlineto
        90 -7 41 -76 22 vhcurveto
        -148 -3 -151 -10 -113 -27 rrcurveto
        -36 callgsubr
        -1042 vlineto
        -105 -15 -8 -103 -15 vhcurveto
        return
      </CharString>
      <CharString index="44">
        rmoveto
        47 3 35 7 25 vhcurveto
        6 29 34 0 35 hhcurveto
        93 138 hlineto
        11 -86 -110 4 -129 hhcurveto
        -132 -127 -4 -14 -138 hvcurveto
        -135 91 vlineto
        36 34 0 -6 29 -47 callgsubr
        -46 vvcurveto
        -749 vlineto
        -87 11 -78 -69 vvcurveto
        return
      </CharString>
      <CharString index="45">
        94 -12 rmoveto
        8 94 87 4 90 hhcurveto
        55 89 -5 -7 140 hvcurveto
        -6 106 rlineto
        -105 17 -9 20 97 vvcurveto
        204 vlineto
        43 30 return
      </CharString>
      <CharString index="46">
        136 132 vvcurveto
        -100 hlineto
        -99 -27 -10 -23 -86 hhcurveto
        return
      </CharString>
      <CharString index="47">
        hvcurveto
        -52 -86 vlineto
        -372 -180 -107 -214 return
      </CharString>
      <CharString index="48">
        -19 -23 142 358 116 314 127 return
      </CharString>
      <CharString index="49">
        -170 345 rlineto
        return
      </CharString>
      <CharString index="50">
        1199 -54 callgsubr
        return
      </CharString>
      <CharString index="51">
        -95 callsubr
        -34 callsubr
        return
      </CharString>
      <CharString index="52">
        -99 -23 157 331 132 303 134 return
      </CharString>
      <CharString index="53">
        -86 callgsubr
        -72 callsubr
        return
      </CharString>
      <CharString index="54">
        -246 9 -21 724 308 -138 138 15 -20 return
      </CharString>
      <CharString index="55">
        -432 -267 -267 -467 return
      </CharString>
      <CharString index="56">
        rmoveto
        187 131 111 151 196 vvcurveto
        103 -55 65 -125 -85 -84 -48 -113 -4 vhcurveto
        -67 47 -50 66 -9 vhcurveto
        -21 -115 -48 -100 -64 -74 return
      </CharString>
      <CharString index="57">
        11 140 125 2 120 hhcurveto
        return
      </CharString>
      <CharString index="58">
        -239 -118 203 371 vhcurveto
        return
      </CharString>
      <CharString index="59">
        -160 -73 124 265 return
      </CharString>
      <CharString index="60">
        hvcurveto
        7 -24 4 -36 return
      </CharString>
      <CharString index="61">
        76 48 -48 -74 hvcurveto
        -60 callsubr
      </CharString>
      <CharString index="62">
        349 -30 154 1141 154 return
      </CharString>
      <CharString index="63">
        315 -41 callsubr
        return
      </CharString>
      <CharString index="64">
        21 -31 19 -25 35 -14 rrcurveto
        endchar
      </CharString>
      <CharString index="65">
        hhcurveto
        97 74 -7 -17 65 hvcurveto
        19 return
      </CharString>
      <CharString index="66">
        169 111 8 18 117 return
      </CharString>
      <CharString index="67">
        428 269 272 460 return
      </CharString>
      <CharString index="68">
        -48 -21 callsubr
        -24 vhcurveto
        -4 return
      </CharString>
      <CharString index="69">
        -21 893 128 488 -20 hstemhm
        216 313 0 247 return
      </CharString>
      <CharString index="70">
        0 -5 25 hvcurveto
        return
      </CharString>
      <CharString index="71">
        -99 105 vlineto
        28 23 -4 -4 21 hvcurveto
        4 -25 1 -27 -32 vvcurveto
        return
      </CharString>
      <CharString index="72">
        179 hlineto
        return
      </CharString>
      <CharString index="73">
        -138 -21 1278 154 return
      </CharString>
      <CharString index="74">
        5 -28 -29 4 -28 hhcurveto
        -43 -40 -10 -30 -30 hvcurveto
        endchar
      </CharString>
      <CharString index="75">
        rmoveto
        -76 -50 -45 -74 -77 -47 45 76 74 49 48 75 return
      </CharString>
      <CharString index="76">
        rmoveto
        106 1 59 71 91 vvcurveto
        88 -64 76 -102 -103 -13 callsubr
        107 vhcurveto
        endchar
      </CharString>
      <CharString index="77">
        -623 7 -21 1039 -20 return
      </CharString>
      <CharString index="78">
        138 hlineto
        13 return
      </CharString>
      <CharString index="79">
        -34 callgsubr
        hstemhm
        269 return
      </CharString>
      <CharString index="80">
        233 320 599 273 return
      </CharString>
      <CharString index="81">
        -80 callgsubr
        7 -26 4 -34 return
      </CharString>
      <CharString index="82">
        146 -138 -21 1054 372 -153 3 callsubr
        552 320 return
      </CharString>
      <CharString index="83">
        6 80 73 3 72 hhcurveto
        66 70 -2 -7 return
      </CharString>
      <CharString index="84">
        330 165 330 return
      </CharString>
      <CharString index="85">
        70 56 0 50 hhcurveto
        50 44 0 1 45 hvcurveto
        17 -85 10 -76 -59 vvcurveto
        return
      </CharString>
      <CharString index="86">
        105 318 394 299 return
      </CharString>
      <CharString index="87">
        -82 -145 -143 -236 -222 rrcurveto
        -3 -18 -2 -15 -12 vvcurveto
        return
      </CharString>
      <CharString index="88">
        234 0 146 1119 159 return
      </CharString>
      <CharString index="89">
        -21 646 -20 return
      </CharString>
      <CharString index="90">
        rmoveto
        111 51 73 96 83 -65 71 -108 -91 -71 -60 -102 return
      </CharString>
      <CharString index="91">
        -413 -412 143 1293 -20 200 293 return
      </CharString>
      <CharString index="92">
        288 320 402 327 return
      </CharString>
      <CharString index="93">
        -12 callgsubr
        -26 return
      </CharString>
      <CharString index="94">
        155 -49 3 callsubr
        return
      </CharString>
      <CharString index="95">
        -37 callgsubr
        7 return
      </CharString>
      <CharString index="96">
        rmoveto
        -89 81 -56 104 96 89 50 95 93 -79 55 -106 return
      </CharString>
      <CharString index="97">
        -60 -171 -63 -175 -65 -178 rrcurveto
        endchar
      </CharString>
      <CharString index="98">
        1153 rmoveto
        return
      </CharString>
      <CharString index="99">
        156 hstemhm
        281 318 607 342 return
      </CharString>
      <CharString index="100">
        -433 149 1166 140 2 -20 return
      </CharString>
      <CharString index="101">
        27 hvcurveto
        6 68 13 132 21 198 rrcurveto
        return
      </CharString>
      <CharString index="102">
        154 hstemhm
        269 return
      </CharString>
      <CharString index="103">
        hhcurveto
        hintmask 10100000
        return
      </CharString>
      <CharString index="104">
        327 hstem
        154 333 vstem
        322 return
      </CharString>
      <CharString index="105">
        106 -102 -21 906 141 458 -20 return
      </CharString>
      <CharString index="106">
        78 106 vvcurveto
        138 -149 71 -155 return
      </CharString>
      <CharString index="107">
        346 -324 -21 hstemhm
        return
      </CharString>
      <CharString index="108">
        138 783 137 return
      </CharString>
      <CharString index="109">
        223 311 return
      </CharString>
      <CharString index="110">
        -121 rlineto
        return
      </CharString>
      <CharString index="111">
        193 endchar
      </CharString>
      <CharString index="112">
        -7 vhcurveto
        -32 -6 -26 10 -53 vvcurveto
        -40 return
      </CharString>
      <CharString index="113">
        21 -31 18 -24 36 -15 rrcurveto
        endchar
      </CharString>
      <CharString index="114">
        -140 rlineto
        return
      </CharString>
      <CharString index="115">
        231 312 364 312 return
      </CharString>
      <CharString index="116">
        hlineto
        -6 47 -6 41 -8 33 rrcurveto
        return
      </CharString>
      <CharString index="117">
        -20 hstemhm
        hintmask 11000000
        return
      </CharString>
      <CharString index="118">
        hstemhm
        269 319 return
      </CharString>
      <CharString index="119">
        0 4 -25 hvcurveto
        return
      </CharString>
      <CharString index="120">
        rmoveto
        185 return
      </CharString>
      <CharString index="121">
        46 4 34 return
      </CharString>
</ttFont>
